<mxfile host="Electron" agent="Mozilla/5.0 (Windows NT 10.0; Win64; x64) AppleWebKit/537.36 (KHTML, like Gecko) draw.io/26.2.2 Chrome/134.0.6998.178 Electron/35.1.2 Safari/537.36" version="26.2.2">
  <diagram name="Page-1" id="sbwtIJG5Lqc62xWzFui9">
    <mxGraphModel dx="4457" dy="2725" grid="1" gridSize="10" guides="1" tooltips="1" connect="1" arrows="1" fold="1" page="1" pageScale="1" pageWidth="850" pageHeight="1100" math="0" shadow="0">
      <root>
        <mxCell id="0" />
        <mxCell id="1" parent="0" />
        <mxCell id="qdfCS7rZfUmENBo_9i0t-54" style="edgeStyle=orthogonalEdgeStyle;rounded=0;orthogonalLoop=1;jettySize=auto;html=1;entryX=0.5;entryY=1;entryDx=0;entryDy=0;endArrow=none;startFill=0;" parent="1" source="w4INzKXedRUWKurKv1tM-1" target="qdfCS7rZfUmENBo_9i0t-52" edge="1">
          <mxGeometry relative="1" as="geometry" />
        </mxCell>
        <mxCell id="qdfCS7rZfUmENBo_9i0t-57" style="edgeStyle=orthogonalEdgeStyle;rounded=0;orthogonalLoop=1;jettySize=auto;html=1;entryX=0.5;entryY=1;entryDx=0;entryDy=0;endArrow=none;startFill=0;" parent="1" source="w4INzKXedRUWKurKv1tM-1" target="qdfCS7rZfUmENBo_9i0t-56" edge="1">
          <mxGeometry relative="1" as="geometry" />
        </mxCell>
        <mxCell id="w4INzKXedRUWKurKv1tM-1" value="Content_Format" style="whiteSpace=wrap;html=1;align=center;" parent="1" vertex="1">
          <mxGeometry x="-1085" y="690" width="100" height="40" as="geometry" />
        </mxCell>
        <mxCell id="w4INzKXedRUWKurKv1tM-2" value="Weak Entity" style="shape=ext;margin=3;double=1;whiteSpace=wrap;html=1;align=center;" parent="1" vertex="1">
          <mxGeometry x="70" y="-310" width="100" height="40" as="geometry" />
        </mxCell>
        <mxCell id="w4INzKXedRUWKurKv1tM-3" value="Associative&#xa;Entity" style="shape=associativeEntity;whiteSpace=wrap;html=1;align=center;" parent="1" vertex="1">
          <mxGeometry x="200" y="-320" width="140" height="60" as="geometry" />
        </mxCell>
        <mxCell id="w4INzKXedRUWKurKv1tM-4" value="Relationship" style="shape=rhombus;perimeter=rhombusPerimeter;whiteSpace=wrap;html=1;align=center;" parent="1" vertex="1">
          <mxGeometry x="360" y="-320" width="120" height="60" as="geometry" />
        </mxCell>
        <mxCell id="w4INzKXedRUWKurKv1tM-5" value="Attribute" style="ellipse;whiteSpace=wrap;html=1;align=center;" parent="1" vertex="1">
          <mxGeometry x="-50" y="-240" width="100" height="40" as="geometry" />
        </mxCell>
        <mxCell id="w4INzKXedRUWKurKv1tM-6" value="Strong key Attribute" style="ellipse;whiteSpace=wrap;html=1;align=center;fontStyle=4;" parent="1" vertex="1">
          <mxGeometry x="60" y="-240" width="100" height="40" as="geometry" />
        </mxCell>
        <mxCell id="w4INzKXedRUWKurKv1tM-7" value="&lt;span style=&quot;border-bottom: 1px dotted&quot;&gt;Weak key Attribute&lt;/span&gt;" style="ellipse;whiteSpace=wrap;html=1;align=center;" parent="1" vertex="1">
          <mxGeometry x="170" y="-240" width="100" height="40" as="geometry" />
        </mxCell>
        <mxCell id="w4INzKXedRUWKurKv1tM-8" value="Derived" style="ellipse;whiteSpace=wrap;html=1;align=center;dashed=1;" parent="1" vertex="1">
          <mxGeometry x="275" y="-240" width="100" height="40" as="geometry" />
        </mxCell>
        <mxCell id="w4INzKXedRUWKurKv1tM-9" value="Multivalue or Composite Attribute" style="ellipse;shape=doubleEllipse;margin=3;whiteSpace=wrap;html=1;align=center;" parent="1" vertex="1">
          <mxGeometry x="390" y="-240" width="100" height="60" as="geometry" />
        </mxCell>
        <mxCell id="w4INzKXedRUWKurKv1tM-10" value="Relationship" style="shape=rhombus;double=1;perimeter=rhombusPerimeter;whiteSpace=wrap;html=1;align=center;" parent="1" vertex="1">
          <mxGeometry x="510" y="-250" width="120" height="60" as="geometry" />
        </mxCell>
        <mxCell id="yMJcQz2AITCi0hib5a6--9" style="edgeStyle=orthogonalEdgeStyle;rounded=0;orthogonalLoop=1;jettySize=auto;html=1;entryX=0.5;entryY=1;entryDx=0;entryDy=0;endArrow=none;startFill=0;" parent="1" source="yMJcQz2AITCi0hib5a6--1" target="yMJcQz2AITCi0hib5a6--8" edge="1">
          <mxGeometry relative="1" as="geometry" />
        </mxCell>
        <mxCell id="yMJcQz2AITCi0hib5a6--10" style="edgeStyle=orthogonalEdgeStyle;rounded=0;orthogonalLoop=1;jettySize=auto;html=1;entryX=0.5;entryY=1;entryDx=0;entryDy=0;endArrow=none;startFill=0;" parent="1" source="yMJcQz2AITCi0hib5a6--1" target="yMJcQz2AITCi0hib5a6--6" edge="1">
          <mxGeometry relative="1" as="geometry" />
        </mxCell>
        <mxCell id="yMJcQz2AITCi0hib5a6--33" style="edgeStyle=orthogonalEdgeStyle;rounded=0;orthogonalLoop=1;jettySize=auto;html=1;entryX=0.5;entryY=1;entryDx=0;entryDy=0;endArrow=none;startFill=0;" parent="1" source="yMJcQz2AITCi0hib5a6--1" target="yMJcQz2AITCi0hib5a6--32" edge="1">
          <mxGeometry relative="1" as="geometry" />
        </mxCell>
        <mxCell id="qdfCS7rZfUmENBo_9i0t-60" style="edgeStyle=orthogonalEdgeStyle;rounded=0;orthogonalLoop=1;jettySize=auto;html=1;endArrow=none;startFill=0;" parent="1" source="yMJcQz2AITCi0hib5a6--1" target="qdfCS7rZfUmENBo_9i0t-58" edge="1">
          <mxGeometry relative="1" as="geometry" />
        </mxCell>
        <mxCell id="DvEDt5dL9hCp_Jummkrn-24" style="edgeStyle=orthogonalEdgeStyle;rounded=0;orthogonalLoop=1;jettySize=auto;html=1;entryX=0.5;entryY=1;entryDx=0;entryDy=0;endArrow=none;startFill=0;" parent="1" source="yMJcQz2AITCi0hib5a6--1" target="DvEDt5dL9hCp_Jummkrn-23" edge="1">
          <mxGeometry relative="1" as="geometry" />
        </mxCell>
        <mxCell id="DvEDt5dL9hCp_Jummkrn-33" style="edgeStyle=orthogonalEdgeStyle;rounded=0;orthogonalLoop=1;jettySize=auto;html=1;entryX=0.5;entryY=1;entryDx=0;entryDy=0;endArrow=none;startFill=0;" parent="1" source="yMJcQz2AITCi0hib5a6--1" target="DvEDt5dL9hCp_Jummkrn-32" edge="1">
          <mxGeometry relative="1" as="geometry" />
        </mxCell>
        <mxCell id="DvEDt5dL9hCp_Jummkrn-35" style="edgeStyle=orthogonalEdgeStyle;rounded=0;orthogonalLoop=1;jettySize=auto;html=1;endArrow=none;startFill=0;" parent="1" source="yMJcQz2AITCi0hib5a6--1" target="DvEDt5dL9hCp_Jummkrn-34" edge="1">
          <mxGeometry relative="1" as="geometry" />
        </mxCell>
        <mxCell id="Ci6vwRIF2w2uZJWK-jLE-5" style="edgeStyle=orthogonalEdgeStyle;rounded=0;orthogonalLoop=1;jettySize=auto;html=1;entryX=0.5;entryY=1;entryDx=0;entryDy=0;endArrow=none;startFill=0;" parent="1" source="yMJcQz2AITCi0hib5a6--1" target="Ci6vwRIF2w2uZJWK-jLE-4" edge="1">
          <mxGeometry relative="1" as="geometry" />
        </mxCell>
        <mxCell id="Ci6vwRIF2w2uZJWK-jLE-7" style="edgeStyle=orthogonalEdgeStyle;rounded=0;orthogonalLoop=1;jettySize=auto;html=1;entryX=0.5;entryY=1;entryDx=0;entryDy=0;endArrow=none;startFill=0;" parent="1" source="yMJcQz2AITCi0hib5a6--1" target="Ci6vwRIF2w2uZJWK-jLE-3" edge="1">
          <mxGeometry relative="1" as="geometry" />
        </mxCell>
        <mxCell id="yMJcQz2AITCi0hib5a6--1" value="&lt;font style=&quot;font-size: 22px;&quot;&gt;Content (Show)&lt;/font&gt;" style="whiteSpace=wrap;html=1;align=center;points=[[0,0,0,0,0],[0,0.25,0,0,0],[0,0.45,0,0,0],[0,0.64,0,0,0],[0,0.82,0,0,0],[0,1,0,0,0],[0.19,1,0,0,0],[0.25,0,0,0,0],[0.34,1,0,0,0],[0.5,0,0,0,0],[0.53,1,0,0,0],[0.68,1,0,0,0],[0.75,0,0,0,0],[0.82,1,0,0,0],[1,0,0,0,0],[1,0.25,0,0,0],[1,0.45,0,0,0],[1,0.63,0,0,0],[1,0.82,0,0,0],[1,1,0,0,0]];" parent="1" vertex="1">
          <mxGeometry x="-20" y="840" width="260" height="190" as="geometry" />
        </mxCell>
        <mxCell id="LjFOChXieChf4-9cmyB0-9" style="edgeStyle=orthogonalEdgeStyle;rounded=0;orthogonalLoop=1;jettySize=auto;html=1;entryX=0.5;entryY=1;entryDx=0;entryDy=0;endArrow=none;startFill=0;" parent="1" source="yMJcQz2AITCi0hib5a6--2" target="LjFOChXieChf4-9cmyB0-7" edge="1">
          <mxGeometry relative="1" as="geometry" />
        </mxCell>
        <mxCell id="LjFOChXieChf4-9cmyB0-11" style="edgeStyle=orthogonalEdgeStyle;rounded=0;orthogonalLoop=1;jettySize=auto;html=1;entryX=0.5;entryY=1;entryDx=0;entryDy=0;endArrow=none;startFill=0;" parent="1" source="yMJcQz2AITCi0hib5a6--2" target="LjFOChXieChf4-9cmyB0-10" edge="1">
          <mxGeometry relative="1" as="geometry" />
        </mxCell>
        <mxCell id="yMJcQz2AITCi0hib5a6--2" value="Actor (Cast)" style="whiteSpace=wrap;html=1;align=center;" parent="1" vertex="1">
          <mxGeometry x="880" y="680" width="100" height="40" as="geometry" />
        </mxCell>
        <mxCell id="yMJcQz2AITCi0hib5a6--5" style="edgeStyle=orthogonalEdgeStyle;rounded=0;orthogonalLoop=1;jettySize=auto;html=1;entryX=0;entryY=0.5;entryDx=0;entryDy=0;endArrow=ERzeroToMany;endFill=0;" parent="1" source="yMJcQz2AITCi0hib5a6--3" target="yMJcQz2AITCi0hib5a6--2" edge="1">
          <mxGeometry relative="1" as="geometry" />
        </mxCell>
        <mxCell id="yMJcQz2AITCi0hib5a6--13" style="edgeStyle=orthogonalEdgeStyle;rounded=0;orthogonalLoop=1;jettySize=auto;html=1;endArrow=none;startFill=0;" parent="1" source="yMJcQz2AITCi0hib5a6--3" target="yMJcQz2AITCi0hib5a6--12" edge="1">
          <mxGeometry relative="1" as="geometry" />
        </mxCell>
        <mxCell id="yMJcQz2AITCi0hib5a6--14" style="edgeStyle=orthogonalEdgeStyle;rounded=0;orthogonalLoop=1;jettySize=auto;html=1;entryX=0.5;entryY=1;entryDx=0;entryDy=0;endArrow=none;startFill=0;" parent="1" source="yMJcQz2AITCi0hib5a6--3" target="yMJcQz2AITCi0hib5a6--11" edge="1">
          <mxGeometry relative="1" as="geometry" />
        </mxCell>
        <mxCell id="ylxQAcT74aEYiyA7Ngud-25" style="edgeStyle=orthogonalEdgeStyle;rounded=0;orthogonalLoop=1;jettySize=auto;html=1;entryX=1;entryY=0.45;entryDx=0;entryDy=0;endArrow=ERzeroToMany;endFill=0;entryPerimeter=0;" parent="1" source="yMJcQz2AITCi0hib5a6--3" target="yMJcQz2AITCi0hib5a6--1" edge="1">
          <mxGeometry relative="1" as="geometry" />
        </mxCell>
        <mxCell id="yMJcQz2AITCi0hib5a6--3" value="ContentActors" style="shape=associativeEntity;whiteSpace=wrap;html=1;align=center;" parent="1" vertex="1">
          <mxGeometry x="560" y="670" width="140" height="60" as="geometry" />
        </mxCell>
        <mxCell id="yMJcQz2AITCi0hib5a6--6" value="contentID" style="ellipse;whiteSpace=wrap;html=1;align=center;fontStyle=4;" parent="1" vertex="1">
          <mxGeometry x="60" y="290" width="100" height="40" as="geometry" />
        </mxCell>
        <mxCell id="yMJcQz2AITCi0hib5a6--8" value="title" style="ellipse;whiteSpace=wrap;html=1;align=center;" parent="1" vertex="1">
          <mxGeometry x="215" y="750" width="100" height="40" as="geometry" />
        </mxCell>
        <mxCell id="yMJcQz2AITCi0hib5a6--11" value="&lt;span style=&quot;border-bottom: 1px dotted&quot;&gt;content&lt;/span&gt;" style="ellipse;whiteSpace=wrap;html=1;align=center;" parent="1" vertex="1">
          <mxGeometry x="520" y="560" width="100" height="40" as="geometry" />
        </mxCell>
        <mxCell id="yMJcQz2AITCi0hib5a6--12" value="&lt;span style=&quot;border-bottom: 1px dotted&quot;&gt;actor&lt;/span&gt;" style="ellipse;whiteSpace=wrap;html=1;align=center;" parent="1" vertex="1">
          <mxGeometry x="645" y="560" width="100" height="40" as="geometry" />
        </mxCell>
        <mxCell id="yMJcQz2AITCi0hib5a6--23" style="edgeStyle=orthogonalEdgeStyle;rounded=0;orthogonalLoop=1;jettySize=auto;html=1;endArrow=none;startFill=0;" parent="1" source="yMJcQz2AITCi0hib5a6--15" target="yMJcQz2AITCi0hib5a6--20" edge="1">
          <mxGeometry relative="1" as="geometry" />
        </mxCell>
        <mxCell id="VuJT0mgca3lZi8kzD4Av-1" style="edgeStyle=orthogonalEdgeStyle;rounded=0;orthogonalLoop=1;jettySize=auto;html=1;entryX=0.5;entryY=0;entryDx=0;entryDy=0;endArrow=none;startFill=0;" parent="1" source="yMJcQz2AITCi0hib5a6--15" target="yMJcQz2AITCi0hib5a6--21" edge="1">
          <mxGeometry relative="1" as="geometry" />
        </mxCell>
        <mxCell id="yMJcQz2AITCi0hib5a6--15" value="Director" style="whiteSpace=wrap;html=1;align=center;" parent="1" vertex="1">
          <mxGeometry x="100" y="1729" width="100" height="40" as="geometry" />
        </mxCell>
        <mxCell id="yMJcQz2AITCi0hib5a6--18" style="edgeStyle=orthogonalEdgeStyle;rounded=0;orthogonalLoop=1;jettySize=auto;html=1;endArrow=ERzeroToMany;endFill=0;entryX=0.68;entryY=1;entryDx=0;entryDy=0;entryPerimeter=0;" parent="1" source="yMJcQz2AITCi0hib5a6--17" target="yMJcQz2AITCi0hib5a6--1" edge="1">
          <mxGeometry relative="1" as="geometry" />
        </mxCell>
        <mxCell id="yMJcQz2AITCi0hib5a6--19" style="edgeStyle=orthogonalEdgeStyle;rounded=0;orthogonalLoop=1;jettySize=auto;html=1;endArrow=ERzeroToMany;endFill=0;" parent="1" source="yMJcQz2AITCi0hib5a6--17" target="yMJcQz2AITCi0hib5a6--15" edge="1">
          <mxGeometry relative="1" as="geometry" />
        </mxCell>
        <mxCell id="yMJcQz2AITCi0hib5a6--26" style="edgeStyle=orthogonalEdgeStyle;rounded=0;orthogonalLoop=1;jettySize=auto;html=1;endArrow=none;startFill=0;" parent="1" source="yMJcQz2AITCi0hib5a6--17" target="yMJcQz2AITCi0hib5a6--25" edge="1">
          <mxGeometry relative="1" as="geometry" />
        </mxCell>
        <mxCell id="yMJcQz2AITCi0hib5a6--27" style="edgeStyle=orthogonalEdgeStyle;rounded=0;orthogonalLoop=1;jettySize=auto;html=1;endArrow=none;startFill=0;" parent="1" source="yMJcQz2AITCi0hib5a6--17" target="yMJcQz2AITCi0hib5a6--24" edge="1">
          <mxGeometry relative="1" as="geometry" />
        </mxCell>
        <mxCell id="yMJcQz2AITCi0hib5a6--17" value="ContentDirectors" style="shape=associativeEntity;whiteSpace=wrap;html=1;align=center;" parent="1" vertex="1">
          <mxGeometry x="80" y="1617.5" width="140" height="60" as="geometry" />
        </mxCell>
        <mxCell id="yMJcQz2AITCi0hib5a6--20" value="directorID" style="ellipse;whiteSpace=wrap;html=1;align=center;fontStyle=4;" parent="1" vertex="1">
          <mxGeometry x="35" y="1807.5" width="100" height="40" as="geometry" />
        </mxCell>
        <mxCell id="yMJcQz2AITCi0hib5a6--21" value="name" style="ellipse;whiteSpace=wrap;html=1;align=center;" parent="1" vertex="1">
          <mxGeometry x="160" y="1809" width="100" height="40" as="geometry" />
        </mxCell>
        <mxCell id="yMJcQz2AITCi0hib5a6--24" value="&lt;span style=&quot;border-bottom: 1px dotted&quot;&gt;director&lt;/span&gt;" style="ellipse;whiteSpace=wrap;html=1;align=center;" parent="1" vertex="1">
          <mxGeometry x="230" y="1690" width="100" height="40" as="geometry" />
        </mxCell>
        <mxCell id="yMJcQz2AITCi0hib5a6--25" value="&lt;span style=&quot;border-bottom: 1px dotted&quot;&gt;content&lt;/span&gt;" style="ellipse;whiteSpace=wrap;html=1;align=center;" parent="1" vertex="1">
          <mxGeometry x="230" y="1550" width="100" height="40" as="geometry" />
        </mxCell>
        <mxCell id="Ci6vwRIF2w2uZJWK-jLE-1" style="edgeStyle=orthogonalEdgeStyle;rounded=0;orthogonalLoop=1;jettySize=auto;html=1;entryX=0.5;entryY=0;entryDx=0;entryDy=0;endArrow=none;startFill=0;" parent="1" source="yMJcQz2AITCi0hib5a6--28" target="qdfCS7rZfUmENBo_9i0t-62" edge="1">
          <mxGeometry relative="1" as="geometry" />
        </mxCell>
        <mxCell id="Ci6vwRIF2w2uZJWK-jLE-2" style="edgeStyle=orthogonalEdgeStyle;rounded=0;orthogonalLoop=1;jettySize=auto;html=1;endArrow=none;startFill=0;" parent="1" source="yMJcQz2AITCi0hib5a6--28" target="qdfCS7rZfUmENBo_9i0t-64" edge="1">
          <mxGeometry relative="1" as="geometry" />
        </mxCell>
        <mxCell id="yMJcQz2AITCi0hib5a6--28" value="Genre" style="whiteSpace=wrap;html=1;align=center;" parent="1" vertex="1">
          <mxGeometry x="-1085" y="975" width="100" height="40" as="geometry" />
        </mxCell>
        <mxCell id="yMJcQz2AITCi0hib5a6--31" style="edgeStyle=orthogonalEdgeStyle;rounded=0;orthogonalLoop=1;jettySize=auto;html=1;entryX=1;entryY=0.5;entryDx=0;entryDy=0;endArrow=ERzeroToOne;endFill=0;" parent="1" source="yMJcQz2AITCi0hib5a6--29" target="yMJcQz2AITCi0hib5a6--28" edge="1">
          <mxGeometry relative="1" as="geometry" />
        </mxCell>
        <mxCell id="DvEDt5dL9hCp_Jummkrn-14" style="edgeStyle=orthogonalEdgeStyle;rounded=0;orthogonalLoop=1;jettySize=auto;html=1;endArrow=ERzeroToMany;endFill=0;entryX=0;entryY=0.82;entryDx=0;entryDy=0;entryPerimeter=0;" parent="1" source="yMJcQz2AITCi0hib5a6--29" target="yMJcQz2AITCi0hib5a6--1" edge="1">
          <mxGeometry relative="1" as="geometry">
            <mxPoint x="-250" y="990" as="targetPoint" />
          </mxGeometry>
        </mxCell>
        <mxCell id="yMJcQz2AITCi0hib5a6--29" value="belong to" style="shape=rhombus;perimeter=rhombusPerimeter;whiteSpace=wrap;html=1;align=center;" parent="1" vertex="1">
          <mxGeometry x="-571.25" y="965" width="120" height="60" as="geometry" />
        </mxCell>
        <mxCell id="yMJcQz2AITCi0hib5a6--32" value="&lt;span style=&quot;border-bottom: 1px dotted&quot;&gt;genre&lt;/span&gt;" style="ellipse;whiteSpace=wrap;html=1;align=center;" parent="1" vertex="1">
          <mxGeometry x="-105" y="580" width="100" height="40" as="geometry" />
        </mxCell>
        <mxCell id="sWINgJ6e_lElKCKlzv-j-23" style="edgeStyle=orthogonalEdgeStyle;rounded=0;orthogonalLoop=1;jettySize=auto;html=1;entryX=0.5;entryY=0;entryDx=0;entryDy=0;endArrow=none;startFill=0;" parent="1" source="yMJcQz2AITCi0hib5a6--34" target="sWINgJ6e_lElKCKlzv-j-22" edge="1">
          <mxGeometry relative="1" as="geometry" />
        </mxCell>
        <mxCell id="sWINgJ6e_lElKCKlzv-j-25" style="edgeStyle=orthogonalEdgeStyle;rounded=0;orthogonalLoop=1;jettySize=auto;html=1;entryX=0.5;entryY=0;entryDx=0;entryDy=0;endArrow=none;startFill=0;" parent="1" source="yMJcQz2AITCi0hib5a6--34" target="sWINgJ6e_lElKCKlzv-j-24" edge="1">
          <mxGeometry relative="1" as="geometry" />
        </mxCell>
        <mxCell id="yMJcQz2AITCi0hib5a6--34" value="Country" style="whiteSpace=wrap;html=1;align=center;" parent="1" vertex="1">
          <mxGeometry x="-140" y="1790" width="100" height="40" as="geometry" />
        </mxCell>
        <mxCell id="yMJcQz2AITCi0hib5a6--37" style="edgeStyle=orthogonalEdgeStyle;rounded=0;orthogonalLoop=1;jettySize=auto;html=1;endArrow=ERzeroToMany;endFill=0;exitX=0.5;exitY=1;exitDx=0;exitDy=0;" parent="1" source="sWINgJ6e_lElKCKlzv-j-14" target="yMJcQz2AITCi0hib5a6--34" edge="1">
          <mxGeometry relative="1" as="geometry">
            <mxPoint x="-145" y="1560" as="sourcePoint" />
          </mxGeometry>
        </mxCell>
        <mxCell id="DvEDt5dL9hCp_Jummkrn-4" style="edgeStyle=orthogonalEdgeStyle;rounded=0;orthogonalLoop=1;jettySize=auto;html=1;endArrow=none;startFill=0;" parent="1" source="yMJcQz2AITCi0hib5a6--38" target="DvEDt5dL9hCp_Jummkrn-3" edge="1">
          <mxGeometry relative="1" as="geometry" />
        </mxCell>
        <mxCell id="DvEDt5dL9hCp_Jummkrn-7" style="edgeStyle=orthogonalEdgeStyle;rounded=0;orthogonalLoop=1;jettySize=auto;html=1;endArrow=none;startFill=0;" parent="1" source="yMJcQz2AITCi0hib5a6--38" target="DvEDt5dL9hCp_Jummkrn-6" edge="1">
          <mxGeometry relative="1" as="geometry" />
        </mxCell>
        <mxCell id="DvEDt5dL9hCp_Jummkrn-8" style="edgeStyle=orthogonalEdgeStyle;rounded=0;orthogonalLoop=1;jettySize=auto;html=1;endArrow=none;startFill=0;" parent="1" source="yMJcQz2AITCi0hib5a6--38" target="DvEDt5dL9hCp_Jummkrn-5" edge="1">
          <mxGeometry relative="1" as="geometry" />
        </mxCell>
        <mxCell id="DvEDt5dL9hCp_Jummkrn-30" style="edgeStyle=orthogonalEdgeStyle;rounded=0;orthogonalLoop=1;jettySize=auto;html=1;entryX=0.5;entryY=1;entryDx=0;entryDy=0;endArrow=none;startFill=0;" parent="1" source="yMJcQz2AITCi0hib5a6--38" target="DvEDt5dL9hCp_Jummkrn-1" edge="1">
          <mxGeometry relative="1" as="geometry" />
        </mxCell>
        <mxCell id="yMJcQz2AITCi0hib5a6--38" value="&lt;font style=&quot;font-size: 29px;&quot;&gt;User&lt;/font&gt;" style="whiteSpace=wrap;html=1;align=center;" parent="1" vertex="1">
          <mxGeometry x="457.5" y="1779" width="270" height="182" as="geometry" />
        </mxCell>
        <mxCell id="yMJcQz2AITCi0hib5a6--43" style="edgeStyle=orthogonalEdgeStyle;rounded=0;orthogonalLoop=1;jettySize=auto;html=1;endArrow=ERzeroToOne;endFill=0;" parent="1" source="yMJcQz2AITCi0hib5a6--40" target="yMJcQz2AITCi0hib5a6--41" edge="1">
          <mxGeometry relative="1" as="geometry" />
        </mxCell>
        <mxCell id="DvEDt5dL9hCp_Jummkrn-28" style="edgeStyle=orthogonalEdgeStyle;rounded=0;orthogonalLoop=1;jettySize=auto;html=1;entryX=0;entryY=0.25;entryDx=0;entryDy=0;endArrow=ERzeroToMany;endFill=0;entryPerimeter=0;" parent="1" source="yMJcQz2AITCi0hib5a6--40" target="yMJcQz2AITCi0hib5a6--1" edge="1">
          <mxGeometry relative="1" as="geometry" />
        </mxCell>
        <mxCell id="yMJcQz2AITCi0hib5a6--40" value="belongs to" style="shape=rhombus;perimeter=rhombusPerimeter;whiteSpace=wrap;html=1;align=center;" parent="1" vertex="1">
          <mxGeometry x="-366.25" y="640" width="120" height="60" as="geometry" />
        </mxCell>
        <mxCell id="DvEDt5dL9hCp_Jummkrn-25" style="edgeStyle=orthogonalEdgeStyle;rounded=0;orthogonalLoop=1;jettySize=auto;html=1;entryX=0.5;entryY=1;entryDx=0;entryDy=0;endArrow=none;startFill=0;" parent="1" source="yMJcQz2AITCi0hib5a6--41" target="LjFOChXieChf4-9cmyB0-14" edge="1">
          <mxGeometry relative="1" as="geometry" />
        </mxCell>
        <mxCell id="DvEDt5dL9hCp_Jummkrn-27" style="edgeStyle=orthogonalEdgeStyle;rounded=0;orthogonalLoop=1;jettySize=auto;html=1;entryX=0.5;entryY=1;entryDx=0;entryDy=0;endArrow=none;startFill=0;" parent="1" source="yMJcQz2AITCi0hib5a6--41" target="sWINgJ6e_lElKCKlzv-j-8" edge="1">
          <mxGeometry relative="1" as="geometry" />
        </mxCell>
        <mxCell id="yMJcQz2AITCi0hib5a6--41" value="Rating" style="shape=ext;margin=3;double=1;whiteSpace=wrap;html=1;align=center;" parent="1" vertex="1">
          <mxGeometry x="-800" y="492" width="100" height="40" as="geometry" />
        </mxCell>
        <mxCell id="yMJcQz2AITCi0hib5a6--53" style="edgeStyle=orthogonalEdgeStyle;rounded=0;orthogonalLoop=1;jettySize=auto;html=1;entryX=0.5;entryY=0;entryDx=0;entryDy=0;endArrow=none;startFill=0;" parent="1" source="yMJcQz2AITCi0hib5a6--46" target="yMJcQz2AITCi0hib5a6--52" edge="1">
          <mxGeometry relative="1" as="geometry" />
        </mxCell>
        <mxCell id="LjFOChXieChf4-9cmyB0-17" style="edgeStyle=orthogonalEdgeStyle;rounded=0;orthogonalLoop=1;jettySize=auto;html=1;endArrow=none;startFill=0;" parent="1" source="yMJcQz2AITCi0hib5a6--46" target="LjFOChXieChf4-9cmyB0-16" edge="1">
          <mxGeometry relative="1" as="geometry" />
        </mxCell>
        <mxCell id="LjFOChXieChf4-9cmyB0-19" style="edgeStyle=orthogonalEdgeStyle;rounded=0;orthogonalLoop=1;jettySize=auto;html=1;endArrow=none;startFill=0;" parent="1" source="yMJcQz2AITCi0hib5a6--46" target="LjFOChXieChf4-9cmyB0-18" edge="1">
          <mxGeometry relative="1" as="geometry" />
        </mxCell>
        <mxCell id="sWINgJ6e_lElKCKlzv-j-13" style="edgeStyle=orthogonalEdgeStyle;rounded=0;orthogonalLoop=1;jettySize=auto;html=1;endArrow=none;startFill=0;" parent="1" source="yMJcQz2AITCi0hib5a6--46" target="sWINgJ6e_lElKCKlzv-j-12" edge="1">
          <mxGeometry relative="1" as="geometry" />
        </mxCell>
        <mxCell id="DvEDt5dL9hCp_Jummkrn-10" style="edgeStyle=orthogonalEdgeStyle;rounded=0;orthogonalLoop=1;jettySize=auto;html=1;entryX=0.5;entryY=0;entryDx=0;entryDy=0;endArrow=none;startFill=0;" parent="1" source="yMJcQz2AITCi0hib5a6--46" target="DvEDt5dL9hCp_Jummkrn-9" edge="1">
          <mxGeometry relative="1" as="geometry" />
        </mxCell>
        <mxCell id="Ci6vwRIF2w2uZJWK-jLE-40" style="edgeStyle=orthogonalEdgeStyle;rounded=0;orthogonalLoop=1;jettySize=auto;html=1;endArrow=none;startFill=0;" parent="1" source="yMJcQz2AITCi0hib5a6--46" target="Ci6vwRIF2w2uZJWK-jLE-39" edge="1">
          <mxGeometry relative="1" as="geometry" />
        </mxCell>
        <mxCell id="yMJcQz2AITCi0hib5a6--46" value="Review" style="shape=ext;margin=3;double=1;whiteSpace=wrap;html=1;align=center;" parent="1" vertex="1">
          <mxGeometry x="955" y="2305" width="100" height="40" as="geometry" />
        </mxCell>
        <mxCell id="yMJcQz2AITCi0hib5a6--50" style="edgeStyle=orthogonalEdgeStyle;rounded=0;orthogonalLoop=1;jettySize=auto;html=1;entryX=0.75;entryY=1;entryDx=0;entryDy=0;endArrow=ERone;endFill=0;" parent="1" source="yMJcQz2AITCi0hib5a6--49" target="yMJcQz2AITCi0hib5a6--38" edge="1">
          <mxGeometry relative="1" as="geometry">
            <mxPoint x="330" y="1670" as="targetPoint" />
          </mxGeometry>
        </mxCell>
        <mxCell id="yMJcQz2AITCi0hib5a6--51" style="edgeStyle=orthogonalEdgeStyle;rounded=0;orthogonalLoop=1;jettySize=auto;html=1;endArrow=ERzeroToMany;endFill=0;" parent="1" source="yMJcQz2AITCi0hib5a6--49" target="yMJcQz2AITCi0hib5a6--46" edge="1">
          <mxGeometry relative="1" as="geometry" />
        </mxCell>
        <mxCell id="yMJcQz2AITCi0hib5a6--49" value="belongs to" style="shape=rhombus;perimeter=rhombusPerimeter;whiteSpace=wrap;html=1;align=center;" parent="1" vertex="1">
          <mxGeometry x="950" y="2160" width="120" height="60" as="geometry" />
        </mxCell>
        <mxCell id="yMJcQz2AITCi0hib5a6--52" value="&lt;span style=&quot;border-bottom: 1px dotted&quot;&gt;content&lt;/span&gt;" style="ellipse;whiteSpace=wrap;html=1;align=center;" parent="1" vertex="1">
          <mxGeometry x="1020" y="2380" width="100" height="40" as="geometry" />
        </mxCell>
        <mxCell id="ylxQAcT74aEYiyA7Ngud-46" style="edgeStyle=orthogonalEdgeStyle;rounded=0;orthogonalLoop=1;jettySize=auto;html=1;entryX=0.5;entryY=0;entryDx=0;entryDy=0;endArrow=none;startFill=0;" parent="1" source="yMJcQz2AITCi0hib5a6--59" target="ylxQAcT74aEYiyA7Ngud-44" edge="1">
          <mxGeometry relative="1" as="geometry" />
        </mxCell>
        <mxCell id="ylxQAcT74aEYiyA7Ngud-47" style="edgeStyle=orthogonalEdgeStyle;rounded=0;orthogonalLoop=1;jettySize=auto;html=1;endArrow=none;startFill=0;" parent="1" source="yMJcQz2AITCi0hib5a6--59" target="ylxQAcT74aEYiyA7Ngud-45" edge="1">
          <mxGeometry relative="1" as="geometry" />
        </mxCell>
        <mxCell id="ylxQAcT74aEYiyA7Ngud-49" style="edgeStyle=orthogonalEdgeStyle;rounded=0;orthogonalLoop=1;jettySize=auto;html=1;entryX=0.5;entryY=0;entryDx=0;entryDy=0;endArrow=none;startFill=0;" parent="1" source="yMJcQz2AITCi0hib5a6--59" target="ylxQAcT74aEYiyA7Ngud-48" edge="1">
          <mxGeometry relative="1" as="geometry" />
        </mxCell>
        <mxCell id="yMJcQz2AITCi0hib5a6--59" value="Subscription Plan" style="whiteSpace=wrap;html=1;align=center;" parent="1" vertex="1">
          <mxGeometry x="-170" y="2462.5" width="140" height="75" as="geometry" />
        </mxCell>
        <mxCell id="DvEDt5dL9hCp_Jummkrn-16" style="edgeStyle=orthogonalEdgeStyle;rounded=0;orthogonalLoop=1;jettySize=auto;html=1;entryX=0.82;entryY=1;entryDx=0;entryDy=0;endArrow=ERzeroToMany;endFill=0;entryPerimeter=0;" parent="1" source="yMJcQz2AITCi0hib5a6--64" target="yMJcQz2AITCi0hib5a6--1" edge="1">
          <mxGeometry relative="1" as="geometry" />
        </mxCell>
        <mxCell id="DvEDt5dL9hCp_Jummkrn-29" style="edgeStyle=orthogonalEdgeStyle;rounded=0;orthogonalLoop=1;jettySize=auto;html=1;entryX=0;entryY=0.25;entryDx=0;entryDy=0;endArrow=ERzeroToMany;endFill=0;" parent="1" source="yMJcQz2AITCi0hib5a6--64" target="yMJcQz2AITCi0hib5a6--38" edge="1">
          <mxGeometry relative="1" as="geometry" />
        </mxCell>
        <mxCell id="yMJcQz2AITCi0hib5a6--64" value="available to&lt;div&gt;(watch)&lt;/div&gt;" style="shape=rhombus;perimeter=rhombusPerimeter;whiteSpace=wrap;html=1;align=center;" parent="1" vertex="1">
          <mxGeometry x="360" y="1300" width="120" height="60" as="geometry" />
        </mxCell>
        <mxCell id="yMJcQz2AITCi0hib5a6--70" value="&lt;span style=&quot;border-bottom: 1px dotted&quot;&gt;user&lt;/span&gt;" style="ellipse;whiteSpace=wrap;html=1;align=center;" parent="1" vertex="1">
          <mxGeometry x="1460" y="740" width="100" height="40" as="geometry" />
        </mxCell>
        <mxCell id="LjFOChXieChf4-9cmyB0-3" style="edgeStyle=orthogonalEdgeStyle;rounded=0;orthogonalLoop=1;jettySize=auto;html=1;entryX=0.5;entryY=0;entryDx=0;entryDy=0;endArrow=ERzeroToMany;endFill=0;" parent="1" source="LjFOChXieChf4-9cmyB0-1" target="yMJcQz2AITCi0hib5a6--59" edge="1">
          <mxGeometry relative="1" as="geometry" />
        </mxCell>
        <mxCell id="ylxQAcT74aEYiyA7Ngud-38" style="edgeStyle=orthogonalEdgeStyle;rounded=0;orthogonalLoop=1;jettySize=auto;html=1;entryX=0.5;entryY=1;entryDx=0;entryDy=0;endArrow=none;startFill=0;" parent="1" source="LjFOChXieChf4-9cmyB0-1" target="ylxQAcT74aEYiyA7Ngud-37" edge="1">
          <mxGeometry relative="1" as="geometry" />
        </mxCell>
        <mxCell id="ylxQAcT74aEYiyA7Ngud-40" style="edgeStyle=orthogonalEdgeStyle;rounded=0;orthogonalLoop=1;jettySize=auto;html=1;entryX=0.5;entryY=1;entryDx=0;entryDy=0;endArrow=none;startFill=0;" parent="1" source="LjFOChXieChf4-9cmyB0-1" target="ylxQAcT74aEYiyA7Ngud-39" edge="1">
          <mxGeometry relative="1" as="geometry" />
        </mxCell>
        <mxCell id="ylxQAcT74aEYiyA7Ngud-83" style="edgeStyle=orthogonalEdgeStyle;rounded=0;orthogonalLoop=1;jettySize=auto;html=1;entryX=0.25;entryY=1;entryDx=0;entryDy=0;endArrow=ERzeroToMany;endFill=0;" parent="1" source="LjFOChXieChf4-9cmyB0-1" target="yMJcQz2AITCi0hib5a6--38" edge="1">
          <mxGeometry relative="1" as="geometry" />
        </mxCell>
        <mxCell id="Ci6vwRIF2w2uZJWK-jLE-26" style="edgeStyle=orthogonalEdgeStyle;rounded=0;orthogonalLoop=1;jettySize=auto;html=1;entryX=0.5;entryY=1;entryDx=0;entryDy=0;endArrow=none;startFill=0;" parent="1" source="LjFOChXieChf4-9cmyB0-1" target="Ci6vwRIF2w2uZJWK-jLE-25" edge="1">
          <mxGeometry relative="1" as="geometry" />
        </mxCell>
        <mxCell id="LjFOChXieChf4-9cmyB0-1" value="User_Subscription" style="shape=associativeEntity;whiteSpace=wrap;html=1;align=center;" parent="1" vertex="1">
          <mxGeometry x="-187.5" y="2331.5" width="175" height="80" as="geometry" />
        </mxCell>
        <mxCell id="LjFOChXieChf4-9cmyB0-7" value="actorID" style="ellipse;whiteSpace=wrap;html=1;align=center;fontStyle=4;" parent="1" vertex="1">
          <mxGeometry x="830" y="580" width="100" height="40" as="geometry" />
        </mxCell>
        <mxCell id="LjFOChXieChf4-9cmyB0-10" value="name" style="ellipse;whiteSpace=wrap;html=1;align=center;" parent="1" vertex="1">
          <mxGeometry x="950" y="580" width="100" height="40" as="geometry" />
        </mxCell>
        <mxCell id="LjFOChXieChf4-9cmyB0-14" value="name" style="ellipse;whiteSpace=wrap;html=1;align=center;" parent="1" vertex="1">
          <mxGeometry x="-730" y="400" width="100" height="40" as="geometry" />
        </mxCell>
        <mxCell id="LjFOChXieChf4-9cmyB0-16" value="&lt;span style=&quot;border-bottom: 1px dotted&quot;&gt;user&lt;/span&gt;" style="ellipse;whiteSpace=wrap;html=1;align=center;" parent="1" vertex="1">
          <mxGeometry x="880" y="2390" width="100" height="40" as="geometry" />
        </mxCell>
        <mxCell id="LjFOChXieChf4-9cmyB0-18" value="review_text" style="ellipse;whiteSpace=wrap;html=1;align=center;" parent="1" vertex="1">
          <mxGeometry x="1140" y="2450" width="100" height="40" as="geometry" />
        </mxCell>
        <mxCell id="ymjgTMU6sitvcnR_cFkY-16" style="edgeStyle=orthogonalEdgeStyle;rounded=0;orthogonalLoop=1;jettySize=auto;html=1;entryX=0;entryY=0.5;entryDx=0;entryDy=0;endArrow=none;startFill=0;" parent="1" source="ymjgTMU6sitvcnR_cFkY-1" target="ymjgTMU6sitvcnR_cFkY-9" edge="1">
          <mxGeometry relative="1" as="geometry" />
        </mxCell>
        <mxCell id="ymjgTMU6sitvcnR_cFkY-17" style="edgeStyle=orthogonalEdgeStyle;rounded=0;orthogonalLoop=1;jettySize=auto;html=1;entryX=0;entryY=0.5;entryDx=0;entryDy=0;endArrow=none;startFill=0;" parent="1" source="ymjgTMU6sitvcnR_cFkY-1" target="ymjgTMU6sitvcnR_cFkY-8" edge="1">
          <mxGeometry relative="1" as="geometry" />
        </mxCell>
        <mxCell id="ymjgTMU6sitvcnR_cFkY-18" style="edgeStyle=orthogonalEdgeStyle;rounded=0;orthogonalLoop=1;jettySize=auto;html=1;entryX=0;entryY=0.5;entryDx=0;entryDy=0;endArrow=none;startFill=0;" parent="1" source="ymjgTMU6sitvcnR_cFkY-1" target="ymjgTMU6sitvcnR_cFkY-4" edge="1">
          <mxGeometry relative="1" as="geometry" />
        </mxCell>
        <mxCell id="ymjgTMU6sitvcnR_cFkY-19" style="edgeStyle=orthogonalEdgeStyle;rounded=0;orthogonalLoop=1;jettySize=auto;html=1;entryX=0;entryY=0.5;entryDx=0;entryDy=0;endArrow=none;startFill=0;" parent="1" source="ymjgTMU6sitvcnR_cFkY-1" target="yMJcQz2AITCi0hib5a6--70" edge="1">
          <mxGeometry relative="1" as="geometry" />
        </mxCell>
        <mxCell id="ymjgTMU6sitvcnR_cFkY-20" style="edgeStyle=orthogonalEdgeStyle;rounded=0;orthogonalLoop=1;jettySize=auto;html=1;entryX=0;entryY=0.5;entryDx=0;entryDy=0;endArrow=none;startFill=0;" parent="1" source="ymjgTMU6sitvcnR_cFkY-1" target="ymjgTMU6sitvcnR_cFkY-6" edge="1">
          <mxGeometry relative="1" as="geometry" />
        </mxCell>
        <mxCell id="ymjgTMU6sitvcnR_cFkY-1" value="Playlist" style="whiteSpace=wrap;html=1;align=center;" parent="1" vertex="1">
          <mxGeometry x="1230" y="892" width="110" height="46" as="geometry" />
        </mxCell>
        <mxCell id="ymjgTMU6sitvcnR_cFkY-4" value="playlistID" style="ellipse;whiteSpace=wrap;html=1;align=center;fontStyle=4;" parent="1" vertex="1">
          <mxGeometry x="1570" y="894" width="100" height="40" as="geometry" />
        </mxCell>
        <mxCell id="ymjgTMU6sitvcnR_cFkY-6" value="playlistName" style="ellipse;whiteSpace=wrap;html=1;align=center;" parent="1" vertex="1">
          <mxGeometry x="1460" y="1045" width="100" height="40" as="geometry" />
        </mxCell>
        <mxCell id="ymjgTMU6sitvcnR_cFkY-8" value="updatedAt" style="ellipse;whiteSpace=wrap;html=1;align=center;" parent="1" vertex="1">
          <mxGeometry x="1490" y="820" width="100" height="40" as="geometry" />
        </mxCell>
        <mxCell id="ymjgTMU6sitvcnR_cFkY-9" value="createdAt" style="ellipse;whiteSpace=wrap;html=1;align=center;" parent="1" vertex="1">
          <mxGeometry x="1490" y="950" width="100" height="40" as="geometry" />
        </mxCell>
        <mxCell id="ymjgTMU6sitvcnR_cFkY-15" style="edgeStyle=orthogonalEdgeStyle;rounded=0;orthogonalLoop=1;jettySize=auto;html=1;endArrow=ERzeroToMany;endFill=0;" parent="1" source="ymjgTMU6sitvcnR_cFkY-12" target="ymjgTMU6sitvcnR_cFkY-1" edge="1">
          <mxGeometry relative="1" as="geometry" />
        </mxCell>
        <mxCell id="ylxQAcT74aEYiyA7Ngud-24" style="edgeStyle=orthogonalEdgeStyle;rounded=0;orthogonalLoop=1;jettySize=auto;html=1;entryX=1;entryY=0.63;entryDx=0;entryDy=0;endArrow=ERzeroToMany;endFill=0;entryPerimeter=0;" parent="1" source="ymjgTMU6sitvcnR_cFkY-12" target="yMJcQz2AITCi0hib5a6--1" edge="1">
          <mxGeometry relative="1" as="geometry" />
        </mxCell>
        <mxCell id="DvEDt5dL9hCp_Jummkrn-17" style="edgeStyle=orthogonalEdgeStyle;rounded=0;orthogonalLoop=1;jettySize=auto;html=1;entryX=0.5;entryY=1;entryDx=0;entryDy=0;endArrow=none;startFill=0;" parent="1" source="ymjgTMU6sitvcnR_cFkY-12" target="sWINgJ6e_lElKCKlzv-j-1" edge="1">
          <mxGeometry relative="1" as="geometry" />
        </mxCell>
        <mxCell id="DvEDt5dL9hCp_Jummkrn-18" style="edgeStyle=orthogonalEdgeStyle;rounded=0;orthogonalLoop=1;jettySize=auto;html=1;endArrow=none;startFill=0;" parent="1" source="ymjgTMU6sitvcnR_cFkY-12" target="sWINgJ6e_lElKCKlzv-j-6" edge="1">
          <mxGeometry relative="1" as="geometry" />
        </mxCell>
        <mxCell id="DvEDt5dL9hCp_Jummkrn-19" style="edgeStyle=orthogonalEdgeStyle;rounded=0;orthogonalLoop=1;jettySize=auto;html=1;entryX=0.5;entryY=1;entryDx=0;entryDy=0;endArrow=none;startFill=0;" parent="1" source="ymjgTMU6sitvcnR_cFkY-12" target="sWINgJ6e_lElKCKlzv-j-2" edge="1">
          <mxGeometry relative="1" as="geometry" />
        </mxCell>
        <mxCell id="ymjgTMU6sitvcnR_cFkY-12" value="PlaylistContent" style="shape=associativeEntity;whiteSpace=wrap;html=1;align=center;" parent="1" vertex="1">
          <mxGeometry x="605" y="885" width="140" height="60" as="geometry" />
        </mxCell>
        <mxCell id="sWINgJ6e_lElKCKlzv-j-10" style="edgeStyle=orthogonalEdgeStyle;rounded=0;orthogonalLoop=1;jettySize=auto;html=1;entryX=0.5;entryY=1;entryDx=0;entryDy=0;endArrow=ERzeroToMany;endFill=0;" parent="1" source="ymjgTMU6sitvcnR_cFkY-21" target="ymjgTMU6sitvcnR_cFkY-1" edge="1">
          <mxGeometry relative="1" as="geometry" />
        </mxCell>
        <mxCell id="sWINgJ6e_lElKCKlzv-j-11" style="edgeStyle=orthogonalEdgeStyle;rounded=0;orthogonalLoop=1;jettySize=auto;html=1;entryX=1;entryY=0.25;entryDx=0;entryDy=0;endArrow=ERzeroToOne;endFill=0;" parent="1" source="ymjgTMU6sitvcnR_cFkY-21" target="yMJcQz2AITCi0hib5a6--38" edge="1">
          <mxGeometry relative="1" as="geometry" />
        </mxCell>
        <mxCell id="ymjgTMU6sitvcnR_cFkY-21" value="belongs to" style="shape=rhombus;perimeter=rhombusPerimeter;whiteSpace=wrap;html=1;align=center;" parent="1" vertex="1">
          <mxGeometry x="975" y="1630" width="120" height="60" as="geometry" />
        </mxCell>
        <mxCell id="sWINgJ6e_lElKCKlzv-j-1" value="&lt;span style=&quot;border-bottom: 1px dotted&quot;&gt;content&lt;/span&gt;" style="ellipse;whiteSpace=wrap;html=1;align=center;" parent="1" vertex="1">
          <mxGeometry x="625" y="760" width="100" height="40" as="geometry" />
        </mxCell>
        <mxCell id="sWINgJ6e_lElKCKlzv-j-2" value="&lt;span style=&quot;border-bottom: 1px dotted&quot;&gt;playlist&lt;/span&gt;" style="ellipse;whiteSpace=wrap;html=1;align=center;" parent="1" vertex="1">
          <mxGeometry x="520" y="790" width="100" height="40" as="geometry" />
        </mxCell>
        <mxCell id="sWINgJ6e_lElKCKlzv-j-6" value="updatedAt" style="ellipse;whiteSpace=wrap;html=1;align=center;" parent="1" vertex="1">
          <mxGeometry x="740" y="790" width="100" height="40" as="geometry" />
        </mxCell>
        <mxCell id="sWINgJ6e_lElKCKlzv-j-8" value="ratingID" style="ellipse;whiteSpace=wrap;html=1;align=center;fontStyle=4;" parent="1" vertex="1">
          <mxGeometry x="-857.5" y="400" width="100" height="40" as="geometry" />
        </mxCell>
        <mxCell id="sWINgJ6e_lElKCKlzv-j-12" value="reviewID" style="ellipse;whiteSpace=wrap;html=1;align=center;fontStyle=4;" parent="1" vertex="1">
          <mxGeometry x="955" y="2600.5" width="100" height="40" as="geometry" />
        </mxCell>
        <mxCell id="sWINgJ6e_lElKCKlzv-j-19" style="edgeStyle=orthogonalEdgeStyle;rounded=0;orthogonalLoop=1;jettySize=auto;html=1;endArrow=none;startFill=0;" parent="1" source="sWINgJ6e_lElKCKlzv-j-14" target="sWINgJ6e_lElKCKlzv-j-15" edge="1">
          <mxGeometry relative="1" as="geometry" />
        </mxCell>
        <mxCell id="ylxQAcT74aEYiyA7Ngud-78" style="edgeStyle=orthogonalEdgeStyle;rounded=0;orthogonalLoop=1;jettySize=auto;html=1;entryX=0.34;entryY=1;entryDx=0;entryDy=0;endArrow=ERzeroToMany;endFill=0;entryPerimeter=0;" parent="1" source="sWINgJ6e_lElKCKlzv-j-14" target="yMJcQz2AITCi0hib5a6--1" edge="1">
          <mxGeometry relative="1" as="geometry" />
        </mxCell>
        <mxCell id="Ci6vwRIF2w2uZJWK-jLE-28" style="edgeStyle=orthogonalEdgeStyle;rounded=0;orthogonalLoop=1;jettySize=auto;html=1;endArrow=none;startFill=0;" parent="1" source="sWINgJ6e_lElKCKlzv-j-14" target="sWINgJ6e_lElKCKlzv-j-16" edge="1">
          <mxGeometry relative="1" as="geometry" />
        </mxCell>
        <mxCell id="sWINgJ6e_lElKCKlzv-j-14" value="ContentCountry" style="shape=associativeEntity;whiteSpace=wrap;html=1;align=center;" parent="1" vertex="1">
          <mxGeometry x="-160" y="1661.5" width="140" height="60" as="geometry" />
        </mxCell>
        <mxCell id="sWINgJ6e_lElKCKlzv-j-15" value="&lt;span style=&quot;border-bottom: 1px dotted&quot;&gt;country&lt;/span&gt;" style="ellipse;whiteSpace=wrap;html=1;align=center;" parent="1" vertex="1">
          <mxGeometry x="-310" y="1610" width="100" height="40" as="geometry" />
        </mxCell>
        <mxCell id="sWINgJ6e_lElKCKlzv-j-16" value="&lt;span style=&quot;border-bottom: 1px dotted&quot;&gt;content&lt;/span&gt;" style="ellipse;whiteSpace=wrap;html=1;align=center;" parent="1" vertex="1">
          <mxGeometry x="-310" y="1729" width="100" height="40" as="geometry" />
        </mxCell>
        <mxCell id="sWINgJ6e_lElKCKlzv-j-22" value="countryID" style="ellipse;whiteSpace=wrap;html=1;align=center;fontStyle=4;" parent="1" vertex="1">
          <mxGeometry x="-210" y="1901" width="100" height="40" as="geometry" />
        </mxCell>
        <mxCell id="sWINgJ6e_lElKCKlzv-j-24" value="name" style="ellipse;whiteSpace=wrap;html=1;align=center;" parent="1" vertex="1">
          <mxGeometry x="-60" y="1901" width="100" height="40" as="geometry" />
        </mxCell>
        <mxCell id="qdfCS7rZfUmENBo_9i0t-8" style="edgeStyle=orthogonalEdgeStyle;rounded=0;orthogonalLoop=1;jettySize=auto;html=1;entryX=0.5;entryY=1;entryDx=0;entryDy=0;endArrow=none;startFill=0;" parent="1" source="qdfCS7rZfUmENBo_9i0t-2" target="qdfCS7rZfUmENBo_9i0t-7" edge="1">
          <mxGeometry relative="1" as="geometry" />
        </mxCell>
        <mxCell id="qdfCS7rZfUmENBo_9i0t-10" style="edgeStyle=orthogonalEdgeStyle;rounded=0;orthogonalLoop=1;jettySize=auto;html=1;endArrow=none;startFill=0;" parent="1" source="qdfCS7rZfUmENBo_9i0t-2" target="qdfCS7rZfUmENBo_9i0t-9" edge="1">
          <mxGeometry relative="1" as="geometry" />
        </mxCell>
        <mxCell id="qdfCS7rZfUmENBo_9i0t-2" value="Tag" style="whiteSpace=wrap;html=1;align=center;" parent="1" vertex="1">
          <mxGeometry x="-1085" y="865" width="100" height="40" as="geometry" />
        </mxCell>
        <mxCell id="qdfCS7rZfUmENBo_9i0t-5" style="edgeStyle=orthogonalEdgeStyle;rounded=0;orthogonalLoop=1;jettySize=auto;html=1;endArrow=ERzeroToMany;endFill=0;entryX=0;entryY=0.64;entryDx=0;entryDy=0;entryPerimeter=0;" parent="1" source="qdfCS7rZfUmENBo_9i0t-3" target="yMJcQz2AITCi0hib5a6--1" edge="1">
          <mxGeometry relative="1" as="geometry">
            <mxPoint x="-90" y="990" as="targetPoint" />
          </mxGeometry>
        </mxCell>
        <mxCell id="qdfCS7rZfUmENBo_9i0t-6" style="edgeStyle=orthogonalEdgeStyle;rounded=0;orthogonalLoop=1;jettySize=auto;html=1;entryX=1;entryY=0.5;entryDx=0;entryDy=0;endArrow=ERzeroToMany;endFill=0;" parent="1" source="qdfCS7rZfUmENBo_9i0t-3" target="qdfCS7rZfUmENBo_9i0t-2" edge="1">
          <mxGeometry relative="1" as="geometry" />
        </mxCell>
        <mxCell id="qdfCS7rZfUmENBo_9i0t-14" style="edgeStyle=orthogonalEdgeStyle;rounded=0;orthogonalLoop=1;jettySize=auto;html=1;entryX=0.5;entryY=1;entryDx=0;entryDy=0;endArrow=none;startFill=0;" parent="1" source="qdfCS7rZfUmENBo_9i0t-3" target="qdfCS7rZfUmENBo_9i0t-11" edge="1">
          <mxGeometry relative="1" as="geometry" />
        </mxCell>
        <mxCell id="qdfCS7rZfUmENBo_9i0t-3" value="ContentTags" style="shape=associativeEntity;whiteSpace=wrap;html=1;align=center;" parent="1" vertex="1">
          <mxGeometry x="-790" y="855" width="140" height="60" as="geometry" />
        </mxCell>
        <mxCell id="qdfCS7rZfUmENBo_9i0t-7" value="tagID" style="ellipse;whiteSpace=wrap;html=1;align=center;fontStyle=4;" parent="1" vertex="1">
          <mxGeometry x="-1160" y="780" width="100" height="40" as="geometry" />
        </mxCell>
        <mxCell id="qdfCS7rZfUmENBo_9i0t-9" value="description" style="ellipse;whiteSpace=wrap;html=1;align=center;" parent="1" vertex="1">
          <mxGeometry x="-1030" y="780" width="100" height="40" as="geometry" />
        </mxCell>
        <mxCell id="qdfCS7rZfUmENBo_9i0t-11" value="&lt;span style=&quot;border-bottom: 1px dotted&quot;&gt;content&lt;/span&gt;" style="ellipse;whiteSpace=wrap;html=1;align=center;" parent="1" vertex="1">
          <mxGeometry x="-837.5" y="780" width="100" height="40" as="geometry" />
        </mxCell>
        <mxCell id="qdfCS7rZfUmENBo_9i0t-12" value="&lt;span style=&quot;border-bottom: 1px dotted&quot;&gt;tag&lt;/span&gt;" style="ellipse;whiteSpace=wrap;html=1;align=center;" parent="1" vertex="1">
          <mxGeometry x="-712.5" y="780" width="100" height="40" as="geometry" />
        </mxCell>
        <mxCell id="qdfCS7rZfUmENBo_9i0t-13" style="edgeStyle=orthogonalEdgeStyle;rounded=0;orthogonalLoop=1;jettySize=auto;html=1;entryX=0.5;entryY=1;entryDx=0;entryDy=0;entryPerimeter=0;endArrow=none;startFill=0;" parent="1" source="qdfCS7rZfUmENBo_9i0t-3" target="qdfCS7rZfUmENBo_9i0t-12" edge="1">
          <mxGeometry relative="1" as="geometry" />
        </mxCell>
        <mxCell id="qdfCS7rZfUmENBo_9i0t-26" style="edgeStyle=orthogonalEdgeStyle;rounded=0;orthogonalLoop=1;jettySize=auto;html=1;entryX=0.5;entryY=0;entryDx=0;entryDy=0;endArrow=none;startFill=0;" parent="1" source="qdfCS7rZfUmENBo_9i0t-18" target="qdfCS7rZfUmENBo_9i0t-22" edge="1">
          <mxGeometry relative="1" as="geometry" />
        </mxCell>
        <mxCell id="qdfCS7rZfUmENBo_9i0t-27" style="edgeStyle=orthogonalEdgeStyle;rounded=0;orthogonalLoop=1;jettySize=auto;html=1;entryX=0.5;entryY=0;entryDx=0;entryDy=0;endArrow=none;startFill=0;" parent="1" source="qdfCS7rZfUmENBo_9i0t-18" target="qdfCS7rZfUmENBo_9i0t-23" edge="1">
          <mxGeometry relative="1" as="geometry" />
        </mxCell>
        <mxCell id="qdfCS7rZfUmENBo_9i0t-28" style="edgeStyle=orthogonalEdgeStyle;rounded=0;orthogonalLoop=1;jettySize=auto;html=1;entryX=0.5;entryY=0;entryDx=0;entryDy=0;endArrow=none;startFill=0;" parent="1" source="qdfCS7rZfUmENBo_9i0t-18" target="qdfCS7rZfUmENBo_9i0t-25" edge="1">
          <mxGeometry relative="1" as="geometry" />
        </mxCell>
        <mxCell id="DvEDt5dL9hCp_Jummkrn-12" style="edgeStyle=orthogonalEdgeStyle;rounded=0;orthogonalLoop=1;jettySize=auto;html=1;entryX=0.5;entryY=0;entryDx=0;entryDy=0;endArrow=none;startFill=0;" parent="1" source="qdfCS7rZfUmENBo_9i0t-18" target="DvEDt5dL9hCp_Jummkrn-13" edge="1">
          <mxGeometry relative="1" as="geometry">
            <mxPoint x="500" y="2620" as="targetPoint" />
          </mxGeometry>
        </mxCell>
        <mxCell id="qdfCS7rZfUmENBo_9i0t-18" value="Content&lt;div&gt;WatchHistory&lt;/div&gt;" style="shape=ext;margin=3;double=1;whiteSpace=wrap;html=1;align=center;" parent="1" vertex="1">
          <mxGeometry x="537.5" y="2420" width="110" height="50" as="geometry" />
        </mxCell>
        <mxCell id="qdfCS7rZfUmENBo_9i0t-20" style="edgeStyle=orthogonalEdgeStyle;rounded=0;orthogonalLoop=1;jettySize=auto;html=1;entryX=0.5;entryY=1;entryDx=0;entryDy=0;endArrow=ERone;endFill=0;" parent="1" source="qdfCS7rZfUmENBo_9i0t-19" target="yMJcQz2AITCi0hib5a6--38" edge="1">
          <mxGeometry relative="1" as="geometry" />
        </mxCell>
        <mxCell id="qdfCS7rZfUmENBo_9i0t-21" style="edgeStyle=orthogonalEdgeStyle;rounded=0;orthogonalLoop=1;jettySize=auto;html=1;endArrow=ERzeroToOne;endFill=0;" parent="1" source="qdfCS7rZfUmENBo_9i0t-19" target="qdfCS7rZfUmENBo_9i0t-18" edge="1">
          <mxGeometry relative="1" as="geometry" />
        </mxCell>
        <mxCell id="qdfCS7rZfUmENBo_9i0t-19" value="belongs to" style="shape=rhombus;perimeter=rhombusPerimeter;whiteSpace=wrap;html=1;align=center;" parent="1" vertex="1">
          <mxGeometry x="532.5" y="2190" width="120" height="60" as="geometry" />
        </mxCell>
        <mxCell id="qdfCS7rZfUmENBo_9i0t-22" value="&lt;span style=&quot;border-bottom: 1px dotted&quot;&gt;user&lt;/span&gt;" style="ellipse;whiteSpace=wrap;html=1;align=center;" parent="1" vertex="1">
          <mxGeometry x="405" y="2490" width="100" height="40" as="geometry" />
        </mxCell>
        <mxCell id="qdfCS7rZfUmENBo_9i0t-23" value="&lt;span style=&quot;border-bottom: 1px dotted&quot;&gt;content&lt;/span&gt;" style="ellipse;whiteSpace=wrap;html=1;align=center;" parent="1" vertex="1">
          <mxGeometry x="670" y="2490" width="100" height="40" as="geometry" />
        </mxCell>
        <mxCell id="qdfCS7rZfUmENBo_9i0t-25" value="watch_date" style="ellipse;whiteSpace=wrap;html=1;align=center;" parent="1" vertex="1">
          <mxGeometry x="620" y="2620" width="100" height="40" as="geometry" />
        </mxCell>
        <mxCell id="qdfCS7rZfUmENBo_9i0t-34" value="description" style="ellipse;whiteSpace=wrap;html=1;align=center;" parent="1" vertex="1">
          <mxGeometry x="1005" y="1050" width="130" height="50" as="geometry" />
        </mxCell>
        <mxCell id="qdfCS7rZfUmENBo_9i0t-38" style="edgeStyle=orthogonalEdgeStyle;rounded=0;orthogonalLoop=1;jettySize=auto;html=1;endArrow=ERzeroToOne;endFill=0;exitX=1;exitY=0.5;exitDx=0;exitDy=0;" parent="1" source="Ci6vwRIF2w2uZJWK-jLE-8" target="qdfCS7rZfUmENBo_9i0t-42" edge="1">
          <mxGeometry relative="1" as="geometry">
            <mxPoint x="640" y="480" as="sourcePoint" />
          </mxGeometry>
        </mxCell>
        <mxCell id="ylxQAcT74aEYiyA7Ngud-56" style="edgeStyle=orthogonalEdgeStyle;rounded=0;orthogonalLoop=1;jettySize=auto;html=1;entryX=1;entryY=0.25;entryDx=0;entryDy=0;endArrow=ERone;endFill=0;entryPerimeter=0;exitX=0;exitY=0.5;exitDx=0;exitDy=0;" parent="1" source="Ci6vwRIF2w2uZJWK-jLE-8" target="yMJcQz2AITCi0hib5a6--1" edge="1">
          <mxGeometry relative="1" as="geometry">
            <mxPoint x="520.1333333333332" y="480.0666666666666" as="sourcePoint" />
          </mxGeometry>
        </mxCell>
        <mxCell id="qdfCS7rZfUmENBo_9i0t-40" style="edgeStyle=orthogonalEdgeStyle;rounded=0;orthogonalLoop=1;jettySize=auto;html=1;entryX=0.5;entryY=1;entryDx=0;entryDy=0;endArrow=none;startFill=0;" parent="1" source="qdfCS7rZfUmENBo_9i0t-42" target="Ci6vwRIF2w2uZJWK-jLE-9" edge="1">
          <mxGeometry relative="1" as="geometry">
            <mxPoint x="775" y="390" as="targetPoint" />
          </mxGeometry>
        </mxCell>
        <mxCell id="qdfCS7rZfUmENBo_9i0t-41" style="edgeStyle=orthogonalEdgeStyle;rounded=0;orthogonalLoop=1;jettySize=auto;html=1;entryX=0.5;entryY=1;entryDx=0;entryDy=0;endArrow=none;startFill=0;" parent="1" source="qdfCS7rZfUmENBo_9i0t-42" target="qdfCS7rZfUmENBo_9i0t-44" edge="1">
          <mxGeometry relative="1" as="geometry" />
        </mxCell>
        <mxCell id="Ci6vwRIF2w2uZJWK-jLE-12" style="edgeStyle=orthogonalEdgeStyle;rounded=0;orthogonalLoop=1;jettySize=auto;html=1;entryX=0.5;entryY=1;entryDx=0;entryDy=0;endArrow=none;startFill=0;" parent="1" source="qdfCS7rZfUmENBo_9i0t-42" target="Ci6vwRIF2w2uZJWK-jLE-11" edge="1">
          <mxGeometry relative="1" as="geometry" />
        </mxCell>
        <mxCell id="qdfCS7rZfUmENBo_9i0t-42" value="Release" style="shape=ext;margin=3;double=1;whiteSpace=wrap;html=1;align=center;" parent="1" vertex="1">
          <mxGeometry x="790" y="460" width="100" height="40" as="geometry" />
        </mxCell>
        <mxCell id="qdfCS7rZfUmENBo_9i0t-44" value="release_date" style="ellipse;whiteSpace=wrap;html=1;align=center;" parent="1" vertex="1">
          <mxGeometry x="855" y="350" width="100" height="40" as="geometry" />
        </mxCell>
        <mxCell id="qdfCS7rZfUmENBo_9i0t-66" style="edgeStyle=orthogonalEdgeStyle;rounded=0;orthogonalLoop=1;jettySize=auto;html=1;entryX=1;entryY=0.5;entryDx=0;entryDy=0;endArrow=ERzeroToOne;endFill=0;" parent="1" source="qdfCS7rZfUmENBo_9i0t-47" target="w4INzKXedRUWKurKv1tM-1" edge="1">
          <mxGeometry relative="1" as="geometry" />
        </mxCell>
        <mxCell id="qdfCS7rZfUmENBo_9i0t-67" style="edgeStyle=orthogonalEdgeStyle;rounded=0;orthogonalLoop=1;jettySize=auto;html=1;entryX=0;entryY=0.45;entryDx=0;entryDy=0;endArrow=ERzeroToMany;endFill=0;entryPerimeter=0;" parent="1" source="qdfCS7rZfUmENBo_9i0t-47" target="yMJcQz2AITCi0hib5a6--1" edge="1">
          <mxGeometry relative="1" as="geometry" />
        </mxCell>
        <mxCell id="qdfCS7rZfUmENBo_9i0t-47" value="belongs to" style="shape=rhombus;perimeter=rhombusPerimeter;whiteSpace=wrap;html=1;align=center;" parent="1" vertex="1">
          <mxGeometry x="-498.75" y="710" width="120" height="60" as="geometry" />
        </mxCell>
        <mxCell id="qdfCS7rZfUmENBo_9i0t-52" value="description" style="ellipse;whiteSpace=wrap;html=1;align=center;" parent="1" vertex="1">
          <mxGeometry x="-1000" y="572" width="100" height="40" as="geometry" />
        </mxCell>
        <mxCell id="qdfCS7rZfUmENBo_9i0t-55" value="Strong Entity" style="whiteSpace=wrap;html=1;align=center;" parent="1" vertex="1">
          <mxGeometry x="-60" y="-310" width="100" height="40" as="geometry" />
        </mxCell>
        <mxCell id="qdfCS7rZfUmENBo_9i0t-56" value="content_formatID" style="ellipse;whiteSpace=wrap;html=1;align=center;fontStyle=4;" parent="1" vertex="1">
          <mxGeometry x="-1140" y="572" width="100" height="40" as="geometry" />
        </mxCell>
        <mxCell id="qdfCS7rZfUmENBo_9i0t-58" value="&lt;span style=&quot;border-bottom: 1px dotted&quot;&gt;content_format&lt;/span&gt;" style="ellipse;whiteSpace=wrap;html=1;align=center;" parent="1" vertex="1">
          <mxGeometry x="240" y="580" width="100" height="40" as="geometry" />
        </mxCell>
        <mxCell id="qdfCS7rZfUmENBo_9i0t-62" value="genreID" style="ellipse;whiteSpace=wrap;html=1;align=center;fontStyle=4;" parent="1" vertex="1">
          <mxGeometry x="-1170" y="1085" width="100" height="40" as="geometry" />
        </mxCell>
        <mxCell id="qdfCS7rZfUmENBo_9i0t-64" value="description" style="ellipse;whiteSpace=wrap;html=1;align=center;" parent="1" vertex="1">
          <mxGeometry x="-1007.5" y="1085" width="100" height="40" as="geometry" />
        </mxCell>
        <mxCell id="ylxQAcT74aEYiyA7Ngud-71" style="edgeStyle=orthogonalEdgeStyle;rounded=0;orthogonalLoop=1;jettySize=auto;html=1;entryX=0.5;entryY=0;entryDx=0;entryDy=0;endArrow=none;startFill=0;" parent="1" source="ylxQAcT74aEYiyA7Ngud-1" target="ylxQAcT74aEYiyA7Ngud-6" edge="1">
          <mxGeometry relative="1" as="geometry" />
        </mxCell>
        <mxCell id="ylxQAcT74aEYiyA7Ngud-72" style="edgeStyle=orthogonalEdgeStyle;rounded=0;orthogonalLoop=1;jettySize=auto;html=1;entryX=0.5;entryY=0;entryDx=0;entryDy=0;endArrow=none;startFill=0;" parent="1" source="ylxQAcT74aEYiyA7Ngud-1" target="ylxQAcT74aEYiyA7Ngud-8" edge="1">
          <mxGeometry relative="1" as="geometry" />
        </mxCell>
        <mxCell id="ylxQAcT74aEYiyA7Ngud-73" style="edgeStyle=orthogonalEdgeStyle;rounded=0;orthogonalLoop=1;jettySize=auto;html=1;entryX=0.5;entryY=0;entryDx=0;entryDy=0;endArrow=none;startFill=0;" parent="1" source="ylxQAcT74aEYiyA7Ngud-1" target="ylxQAcT74aEYiyA7Ngud-11" edge="1">
          <mxGeometry relative="1" as="geometry">
            <mxPoint x="1310" y="1918" as="targetPoint" />
          </mxGeometry>
        </mxCell>
        <mxCell id="ylxQAcT74aEYiyA7Ngud-1" value="Payment_Method" style="whiteSpace=wrap;html=1;align=center;" parent="1" vertex="1">
          <mxGeometry x="1250" y="1940" width="100" height="40" as="geometry" />
        </mxCell>
        <mxCell id="ylxQAcT74aEYiyA7Ngud-4" style="edgeStyle=orthogonalEdgeStyle;rounded=0;orthogonalLoop=1;jettySize=auto;html=1;entryX=0;entryY=0.5;entryDx=0;entryDy=0;endArrow=ERzeroToMany;endFill=0;" parent="1" source="ylxQAcT74aEYiyA7Ngud-3" target="ylxQAcT74aEYiyA7Ngud-1" edge="1">
          <mxGeometry relative="1" as="geometry" />
        </mxCell>
        <mxCell id="DvEDt5dL9hCp_Jummkrn-31" style="edgeStyle=orthogonalEdgeStyle;rounded=0;orthogonalLoop=1;jettySize=auto;html=1;entryX=1;entryY=0.75;entryDx=0;entryDy=0;endArrow=ERzeroToOne;endFill=0;" parent="1" source="ylxQAcT74aEYiyA7Ngud-3" target="yMJcQz2AITCi0hib5a6--38" edge="1">
          <mxGeometry relative="1" as="geometry" />
        </mxCell>
        <mxCell id="ylxQAcT74aEYiyA7Ngud-3" value="belongs to" style="shape=rhombus;perimeter=rhombusPerimeter;whiteSpace=wrap;html=1;align=center;" parent="1" vertex="1">
          <mxGeometry x="980" y="1930" width="120" height="60" as="geometry" />
        </mxCell>
        <mxCell id="ylxQAcT74aEYiyA7Ngud-6" value="payment_methodID" style="ellipse;whiteSpace=wrap;html=1;align=center;fontStyle=4;" parent="1" vertex="1">
          <mxGeometry x="1340" y="2058" width="110" height="60" as="geometry" />
        </mxCell>
        <mxCell id="ylxQAcT74aEYiyA7Ngud-8" value="&lt;span style=&quot;border-bottom: 1px dotted&quot;&gt;user&lt;/span&gt;" style="ellipse;whiteSpace=wrap;html=1;align=center;" parent="1" vertex="1">
          <mxGeometry x="1150" y="2068" width="100" height="40" as="geometry" />
        </mxCell>
        <mxCell id="ylxQAcT74aEYiyA7Ngud-11" value="card_details" style="ellipse;whiteSpace=wrap;html=1;align=center;" parent="1" vertex="1">
          <mxGeometry x="1250" y="2128" width="100" height="40" as="geometry" />
        </mxCell>
        <mxCell id="ylxQAcT74aEYiyA7Ngud-20" style="edgeStyle=orthogonalEdgeStyle;rounded=0;orthogonalLoop=1;jettySize=auto;html=1;entryX=0.5;entryY=1;entryDx=0;entryDy=0;endArrow=none;startFill=0;" parent="1" source="ylxQAcT74aEYiyA7Ngud-13" target="ylxQAcT74aEYiyA7Ngud-17" edge="1">
          <mxGeometry relative="1" as="geometry" />
        </mxCell>
        <mxCell id="ylxQAcT74aEYiyA7Ngud-21" style="edgeStyle=orthogonalEdgeStyle;rounded=0;orthogonalLoop=1;jettySize=auto;html=1;entryX=0.5;entryY=1;entryDx=0;entryDy=0;endArrow=none;startFill=0;" parent="1" source="ylxQAcT74aEYiyA7Ngud-13" target="ylxQAcT74aEYiyA7Ngud-18" edge="1">
          <mxGeometry relative="1" as="geometry" />
        </mxCell>
        <mxCell id="ylxQAcT74aEYiyA7Ngud-23" style="edgeStyle=orthogonalEdgeStyle;rounded=0;orthogonalLoop=1;jettySize=auto;html=1;entryX=0.5;entryY=1;entryDx=0;entryDy=0;endArrow=none;startFill=0;" parent="1" source="ylxQAcT74aEYiyA7Ngud-13" target="ylxQAcT74aEYiyA7Ngud-19" edge="1">
          <mxGeometry relative="1" as="geometry" />
        </mxCell>
        <mxCell id="Ci6vwRIF2w2uZJWK-jLE-21" style="edgeStyle=orthogonalEdgeStyle;rounded=0;orthogonalLoop=1;jettySize=auto;html=1;entryX=0.5;entryY=1;entryDx=0;entryDy=0;endArrow=none;startFill=0;" parent="1" source="ylxQAcT74aEYiyA7Ngud-13" target="Ci6vwRIF2w2uZJWK-jLE-19" edge="1">
          <mxGeometry relative="1" as="geometry" />
        </mxCell>
        <mxCell id="Ci6vwRIF2w2uZJWK-jLE-22" style="edgeStyle=orthogonalEdgeStyle;rounded=0;orthogonalLoop=1;jettySize=auto;html=1;entryX=0.5;entryY=1;entryDx=0;entryDy=0;endArrow=none;startFill=0;" parent="1" source="ylxQAcT74aEYiyA7Ngud-13" target="Ci6vwRIF2w2uZJWK-jLE-20" edge="1">
          <mxGeometry relative="1" as="geometry" />
        </mxCell>
        <mxCell id="ylxQAcT74aEYiyA7Ngud-13" value="Transaction" style="shape=ext;margin=3;double=1;whiteSpace=wrap;html=1;align=center;" parent="1" vertex="1">
          <mxGeometry x="1940" y="1940" width="100" height="40" as="geometry" />
        </mxCell>
        <mxCell id="ylxQAcT74aEYiyA7Ngud-15" style="edgeStyle=orthogonalEdgeStyle;rounded=0;orthogonalLoop=1;jettySize=auto;html=1;entryX=1;entryY=0.5;entryDx=0;entryDy=0;endArrow=ERone;endFill=0;" parent="1" source="ylxQAcT74aEYiyA7Ngud-14" target="ylxQAcT74aEYiyA7Ngud-1" edge="1">
          <mxGeometry relative="1" as="geometry" />
        </mxCell>
        <mxCell id="ylxQAcT74aEYiyA7Ngud-16" style="edgeStyle=orthogonalEdgeStyle;rounded=0;orthogonalLoop=1;jettySize=auto;html=1;entryX=0;entryY=0.5;entryDx=0;entryDy=0;endArrow=ERzeroToMany;endFill=0;" parent="1" source="ylxQAcT74aEYiyA7Ngud-14" target="ylxQAcT74aEYiyA7Ngud-13" edge="1">
          <mxGeometry relative="1" as="geometry" />
        </mxCell>
        <mxCell id="ylxQAcT74aEYiyA7Ngud-14" value="belongs to" style="shape=rhombus;perimeter=rhombusPerimeter;whiteSpace=wrap;html=1;align=center;" parent="1" vertex="1">
          <mxGeometry x="1650" y="1930" width="120" height="60" as="geometry" />
        </mxCell>
        <mxCell id="ylxQAcT74aEYiyA7Ngud-17" value="transactionID" style="ellipse;whiteSpace=wrap;html=1;align=center;fontStyle=4;" parent="1" vertex="1">
          <mxGeometry x="1940" y="1630" width="100" height="40" as="geometry" />
        </mxCell>
        <mxCell id="ylxQAcT74aEYiyA7Ngud-18" value="&lt;span style=&quot;border-bottom: 1px dotted&quot;&gt;payment_method&lt;/span&gt;" style="ellipse;whiteSpace=wrap;html=1;align=center;" parent="1" vertex="1">
          <mxGeometry x="2010" y="1700" width="100" height="40" as="geometry" />
        </mxCell>
        <mxCell id="ylxQAcT74aEYiyA7Ngud-19" value="transaction_date" style="ellipse;whiteSpace=wrap;html=1;align=center;" parent="1" vertex="1">
          <mxGeometry x="1880" y="1700" width="100" height="40" as="geometry" />
        </mxCell>
        <mxCell id="ylxQAcT74aEYiyA7Ngud-30" style="edgeStyle=orthogonalEdgeStyle;rounded=0;orthogonalLoop=1;jettySize=auto;html=1;entryX=0.5;entryY=1;entryDx=0;entryDy=0;endArrow=none;startFill=0;" parent="1" source="ylxQAcT74aEYiyA7Ngud-27" target="ylxQAcT74aEYiyA7Ngud-29" edge="1">
          <mxGeometry relative="1" as="geometry" />
        </mxCell>
        <mxCell id="DvEDt5dL9hCp_Jummkrn-20" style="edgeStyle=orthogonalEdgeStyle;rounded=0;orthogonalLoop=1;jettySize=auto;html=1;entryX=0.5;entryY=1;entryDx=0;entryDy=0;endArrow=none;startFill=0;" parent="1" source="ylxQAcT74aEYiyA7Ngud-27" target="ylxQAcT74aEYiyA7Ngud-31" edge="1">
          <mxGeometry relative="1" as="geometry" />
        </mxCell>
        <mxCell id="DvEDt5dL9hCp_Jummkrn-21" style="edgeStyle=orthogonalEdgeStyle;rounded=0;orthogonalLoop=1;jettySize=auto;html=1;entryX=1;entryY=0.82;entryDx=0;entryDy=0;endArrow=ERzeroToMany;endFill=0;entryPerimeter=0;" parent="1" source="ylxQAcT74aEYiyA7Ngud-27" target="yMJcQz2AITCi0hib5a6--1" edge="1">
          <mxGeometry relative="1" as="geometry" />
        </mxCell>
        <mxCell id="DvEDt5dL9hCp_Jummkrn-22" style="edgeStyle=orthogonalEdgeStyle;rounded=0;orthogonalLoop=1;jettySize=auto;html=1;entryX=0;entryY=0.5;entryDx=0;entryDy=0;endArrow=ERzeroToMany;endFill=0;" parent="1" source="ylxQAcT74aEYiyA7Ngud-27" target="ylxQAcT74aEYiyA7Ngud-50" edge="1">
          <mxGeometry relative="1" as="geometry" />
        </mxCell>
        <mxCell id="ylxQAcT74aEYiyA7Ngud-27" value="ContentAccessibilities" style="shape=associativeEntity;whiteSpace=wrap;html=1;align=center;" parent="1" vertex="1">
          <mxGeometry x="590" y="1150" width="140" height="60" as="geometry" />
        </mxCell>
        <mxCell id="ylxQAcT74aEYiyA7Ngud-29" value="&lt;span style=&quot;border-bottom: 1px dotted&quot;&gt;content&lt;/span&gt;" style="ellipse;whiteSpace=wrap;html=1;align=center;" parent="1" vertex="1">
          <mxGeometry x="525" y="1060" width="120" height="50" as="geometry" />
        </mxCell>
        <mxCell id="ylxQAcT74aEYiyA7Ngud-31" value="&lt;span style=&quot;border-bottom: 1px dotted&quot;&gt;contentAccessibility&lt;/span&gt;" style="ellipse;whiteSpace=wrap;html=1;align=center;" parent="1" vertex="1">
          <mxGeometry x="685" y="1060" width="130" height="50" as="geometry" />
        </mxCell>
        <mxCell id="ylxQAcT74aEYiyA7Ngud-37" value="&lt;span style=&quot;border-bottom: 1px dotted&quot;&gt;user&lt;/span&gt;" style="ellipse;whiteSpace=wrap;html=1;align=center;" parent="1" vertex="1">
          <mxGeometry x="-237.5" y="2238.5" width="110" height="52" as="geometry" />
        </mxCell>
        <mxCell id="ylxQAcT74aEYiyA7Ngud-39" value="&lt;span style=&quot;border-bottom: 1px dotted&quot;&gt;subscription_plan&lt;/span&gt;" style="ellipse;whiteSpace=wrap;html=1;align=center;" parent="1" vertex="1">
          <mxGeometry x="-80" y="2238.5" width="120" height="52" as="geometry" />
        </mxCell>
        <mxCell id="ylxQAcT74aEYiyA7Ngud-41" value="accessibilityID" style="ellipse;whiteSpace=wrap;html=1;align=center;fontStyle=4;" parent="1" vertex="1">
          <mxGeometry x="865" y="1050" width="120" height="50" as="geometry" />
        </mxCell>
        <mxCell id="ylxQAcT74aEYiyA7Ngud-44" value="subscription_planID" style="ellipse;whiteSpace=wrap;html=1;align=center;fontStyle=4;" parent="1" vertex="1">
          <mxGeometry x="-292.5" y="2590.5" width="165" height="60" as="geometry" />
        </mxCell>
        <mxCell id="ylxQAcT74aEYiyA7Ngud-45" value="name" style="ellipse;whiteSpace=wrap;html=1;align=center;" parent="1" vertex="1">
          <mxGeometry x="-60" y="2590.5" width="140" height="60" as="geometry" />
        </mxCell>
        <mxCell id="ylxQAcT74aEYiyA7Ngud-48" value="price" style="ellipse;whiteSpace=wrap;html=1;align=center;" parent="1" vertex="1">
          <mxGeometry x="-175" y="2680.5" width="150" height="70" as="geometry" />
        </mxCell>
        <mxCell id="ylxQAcT74aEYiyA7Ngud-51" value="" style="edgeStyle=orthogonalEdgeStyle;rounded=0;orthogonalLoop=1;jettySize=auto;html=1;endArrow=none;startFill=0;" parent="1" source="ylxQAcT74aEYiyA7Ngud-50" target="ylxQAcT74aEYiyA7Ngud-41" edge="1">
          <mxGeometry relative="1" as="geometry" />
        </mxCell>
        <mxCell id="ylxQAcT74aEYiyA7Ngud-52" style="edgeStyle=orthogonalEdgeStyle;rounded=0;orthogonalLoop=1;jettySize=auto;html=1;entryX=0.5;entryY=1;entryDx=0;entryDy=0;endArrow=none;startFill=0;" parent="1" source="ylxQAcT74aEYiyA7Ngud-50" target="qdfCS7rZfUmENBo_9i0t-34" edge="1">
          <mxGeometry relative="1" as="geometry" />
        </mxCell>
        <mxCell id="ylxQAcT74aEYiyA7Ngud-50" value="Accessibility" style="whiteSpace=wrap;html=1;align=center;" parent="1" vertex="1">
          <mxGeometry x="935" y="1155" width="110" height="50" as="geometry" />
        </mxCell>
        <mxCell id="ylxQAcT74aEYiyA7Ngud-67" style="edgeStyle=orthogonalEdgeStyle;rounded=0;orthogonalLoop=1;jettySize=auto;html=1;entryX=0.5;entryY=1;entryDx=0;entryDy=0;endArrow=none;startFill=0;" parent="1" source="ylxQAcT74aEYiyA7Ngud-60" target="ylxQAcT74aEYiyA7Ngud-61" edge="1">
          <mxGeometry relative="1" as="geometry" />
        </mxCell>
        <mxCell id="ylxQAcT74aEYiyA7Ngud-68" style="edgeStyle=orthogonalEdgeStyle;rounded=0;orthogonalLoop=1;jettySize=auto;html=1;entryX=0.5;entryY=1;entryDx=0;entryDy=0;endArrow=none;startFill=0;" parent="1" source="ylxQAcT74aEYiyA7Ngud-60" target="ylxQAcT74aEYiyA7Ngud-62" edge="1">
          <mxGeometry relative="1" as="geometry" />
        </mxCell>
        <mxCell id="Ci6vwRIF2w2uZJWK-jLE-24" style="edgeStyle=orthogonalEdgeStyle;rounded=0;orthogonalLoop=1;jettySize=auto;html=1;entryX=0.5;entryY=1;entryDx=0;entryDy=0;endArrow=none;startFill=0;" parent="1" source="ylxQAcT74aEYiyA7Ngud-60" target="Ci6vwRIF2w2uZJWK-jLE-23" edge="1">
          <mxGeometry relative="1" as="geometry" />
        </mxCell>
        <mxCell id="ylxQAcT74aEYiyA7Ngud-60" value="Watchlist" style="shape=ext;margin=3;double=1;whiteSpace=wrap;html=1;align=center;" parent="1" vertex="1">
          <mxGeometry x="1400" y="1820" width="100" height="40" as="geometry" />
        </mxCell>
        <mxCell id="ylxQAcT74aEYiyA7Ngud-61" value="&lt;span style=&quot;border-bottom: 1px dotted&quot;&gt;user&lt;/span&gt;" style="ellipse;whiteSpace=wrap;html=1;align=center;" parent="1" vertex="1">
          <mxGeometry x="1490" y="1740" width="100" height="40" as="geometry" />
        </mxCell>
        <mxCell id="ylxQAcT74aEYiyA7Ngud-62" value="&lt;span style=&quot;border-bottom: 1px dotted&quot;&gt;content&lt;/span&gt;" style="ellipse;whiteSpace=wrap;html=1;align=center;" parent="1" vertex="1">
          <mxGeometry x="1310" y="1741" width="100" height="40" as="geometry" />
        </mxCell>
        <mxCell id="ylxQAcT74aEYiyA7Ngud-64" value="watchListID" style="ellipse;whiteSpace=wrap;html=1;align=center;fontStyle=4;" parent="1" vertex="1">
          <mxGeometry x="1345" y="1617.5" width="100" height="40" as="geometry" />
        </mxCell>
        <mxCell id="ylxQAcT74aEYiyA7Ngud-65" style="edgeStyle=orthogonalEdgeStyle;rounded=0;orthogonalLoop=1;jettySize=auto;html=1;entryX=0.5;entryY=1;entryDx=0;entryDy=0;endArrow=none;startFill=0;" parent="1" source="ylxQAcT74aEYiyA7Ngud-60" target="ylxQAcT74aEYiyA7Ngud-64" edge="1">
          <mxGeometry relative="1" as="geometry" />
        </mxCell>
        <mxCell id="ylxQAcT74aEYiyA7Ngud-75" style="edgeStyle=orthogonalEdgeStyle;rounded=0;orthogonalLoop=1;jettySize=auto;html=1;entryX=0;entryY=0.5;entryDx=0;entryDy=0;endArrow=ERzeroToOne;endFill=0;" parent="1" source="ylxQAcT74aEYiyA7Ngud-74" target="ylxQAcT74aEYiyA7Ngud-60" edge="1">
          <mxGeometry relative="1" as="geometry" />
        </mxCell>
        <mxCell id="ylxQAcT74aEYiyA7Ngud-76" style="edgeStyle=orthogonalEdgeStyle;rounded=0;orthogonalLoop=1;jettySize=auto;html=1;entryX=1;entryY=0.5;entryDx=0;entryDy=0;endArrow=ERone;endFill=0;" parent="1" source="ylxQAcT74aEYiyA7Ngud-74" target="yMJcQz2AITCi0hib5a6--38" edge="1">
          <mxGeometry relative="1" as="geometry" />
        </mxCell>
        <mxCell id="ylxQAcT74aEYiyA7Ngud-74" value="belongs to" style="shape=rhombus;perimeter=rhombusPerimeter;whiteSpace=wrap;html=1;align=center;" parent="1" vertex="1">
          <mxGeometry x="975" y="1810" width="120" height="60" as="geometry" />
        </mxCell>
        <mxCell id="DvEDt5dL9hCp_Jummkrn-1" value="&lt;font style=&quot;font-size: 18px;&quot;&gt;userID&lt;/font&gt;" style="ellipse;whiteSpace=wrap;html=1;align=center;fontStyle=4;" parent="1" vertex="1">
          <mxGeometry x="430" y="1659" width="112.5" height="50" as="geometry" />
        </mxCell>
        <mxCell id="DvEDt5dL9hCp_Jummkrn-3" value="&lt;font style=&quot;font-size: 18px;&quot;&gt;name&lt;/font&gt;" style="ellipse;whiteSpace=wrap;html=1;align=center;" parent="1" vertex="1">
          <mxGeometry x="602.5" y="1534" width="60" height="50" as="geometry" />
        </mxCell>
        <mxCell id="DvEDt5dL9hCp_Jummkrn-5" value="&lt;font style=&quot;font-size: 18px;&quot;&gt;password&lt;/font&gt;" style="ellipse;whiteSpace=wrap;html=1;align=center;" parent="1" vertex="1">
          <mxGeometry x="652.5" y="1661.5" width="85" height="45" as="geometry" />
        </mxCell>
        <mxCell id="DvEDt5dL9hCp_Jummkrn-6" value="&lt;font style=&quot;font-size: 18px;&quot;&gt;email&lt;/font&gt;" style="ellipse;whiteSpace=wrap;html=1;align=center;" parent="1" vertex="1">
          <mxGeometry x="517.5" y="1539" width="70" height="45" as="geometry" />
        </mxCell>
        <mxCell id="DvEDt5dL9hCp_Jummkrn-9" value="review_date" style="ellipse;whiteSpace=wrap;html=1;align=center;" parent="1" vertex="1">
          <mxGeometry x="890" y="2530" width="100" height="40" as="geometry" />
        </mxCell>
        <mxCell id="DvEDt5dL9hCp_Jummkrn-13" value="watch_historyID" style="ellipse;whiteSpace=wrap;html=1;align=center;fontStyle=4;" parent="1" vertex="1">
          <mxGeometry x="470" y="2620" width="100" height="40" as="geometry" />
        </mxCell>
        <mxCell id="DvEDt5dL9hCp_Jummkrn-23" value="&lt;span style=&quot;border-bottom: 1px dotted&quot;&gt;rating&lt;/span&gt;" style="ellipse;whiteSpace=wrap;html=1;align=center;" parent="1" vertex="1">
          <mxGeometry x="-50" y="470" width="100" height="40" as="geometry" />
        </mxCell>
        <mxCell id="DvEDt5dL9hCp_Jummkrn-32" value="description" style="ellipse;whiteSpace=wrap;html=1;align=center;" parent="1" vertex="1">
          <mxGeometry x="175" y="470" width="100" height="40" as="geometry" />
        </mxCell>
        <mxCell id="DvEDt5dL9hCp_Jummkrn-34" value="duration" style="ellipse;whiteSpace=wrap;html=1;align=center;" parent="1" vertex="1">
          <mxGeometry x="-100" y="750" width="100" height="40" as="geometry" />
        </mxCell>
        <mxCell id="VuJT0mgca3lZi8kzD4Av-7" style="edgeStyle=orthogonalEdgeStyle;rounded=0;orthogonalLoop=1;jettySize=auto;html=1;entryX=0.5;entryY=1;entryDx=0;entryDy=0;endArrow=none;startFill=0;" parent="1" source="VuJT0mgca3lZi8kzD4Av-4" target="VuJT0mgca3lZi8kzD4Av-6" edge="1">
          <mxGeometry relative="1" as="geometry" />
        </mxCell>
        <mxCell id="VuJT0mgca3lZi8kzD4Av-8" style="edgeStyle=orthogonalEdgeStyle;rounded=0;orthogonalLoop=1;jettySize=auto;html=1;entryX=0.5;entryY=0;entryDx=0;entryDy=0;endArrow=none;startFill=0;" parent="1" source="VuJT0mgca3lZi8kzD4Av-4" target="VuJT0mgca3lZi8kzD4Av-5" edge="1">
          <mxGeometry relative="1" as="geometry" />
        </mxCell>
        <mxCell id="VuJT0mgca3lZi8kzD4Av-9" style="edgeStyle=orthogonalEdgeStyle;rounded=0;orthogonalLoop=1;jettySize=auto;html=1;entryX=0;entryY=0.5;entryDx=0;entryDy=0;endArrow=ERzeroToMany;endFill=0;" parent="1" source="VuJT0mgca3lZi8kzD4Av-4" target="qdfCS7rZfUmENBo_9i0t-2" edge="1">
          <mxGeometry relative="1" as="geometry" />
        </mxCell>
        <mxCell id="VuJT0mgca3lZi8kzD4Av-10" style="edgeStyle=orthogonalEdgeStyle;rounded=0;orthogonalLoop=1;jettySize=auto;html=1;entryX=0;entryY=0.5;entryDx=0;entryDy=0;endArrow=ERzeroToMany;endFill=0;" parent="1" source="VuJT0mgca3lZi8kzD4Av-4" target="yMJcQz2AITCi0hib5a6--28" edge="1">
          <mxGeometry relative="1" as="geometry" />
        </mxCell>
        <mxCell id="VuJT0mgca3lZi8kzD4Av-4" value="GenreTags" style="shape=associativeEntity;whiteSpace=wrap;html=1;align=center;" parent="1" vertex="1">
          <mxGeometry x="-1310" y="920" width="140" height="60" as="geometry" />
        </mxCell>
        <mxCell id="VuJT0mgca3lZi8kzD4Av-5" value="&lt;span style=&quot;border-bottom: 1px dotted&quot;&gt;tag&lt;/span&gt;" style="ellipse;whiteSpace=wrap;html=1;align=center;" parent="1" vertex="1">
          <mxGeometry x="-1450" y="1005" width="100" height="40" as="geometry" />
        </mxCell>
        <mxCell id="VuJT0mgca3lZi8kzD4Av-6" value="&lt;span style=&quot;border-bottom: 1px dotted&quot;&gt;genre&lt;/span&gt;" style="ellipse;whiteSpace=wrap;html=1;align=center;" parent="1" vertex="1">
          <mxGeometry x="-1450" y="865" width="100" height="40" as="geometry" />
        </mxCell>
        <mxCell id="Ci6vwRIF2w2uZJWK-jLE-3" value="&lt;span style=&quot;border-bottom: 1px dotted&quot;&gt;rating&lt;/span&gt;" style="ellipse;whiteSpace=wrap;html=1;align=center;" parent="1" vertex="1">
          <mxGeometry x="-10" y="380" width="100" height="40" as="geometry" />
        </mxCell>
        <mxCell id="Ci6vwRIF2w2uZJWK-jLE-4" value="release_year" style="ellipse;whiteSpace=wrap;html=1;align=center;" parent="1" vertex="1">
          <mxGeometry x="140" y="380" width="100" height="40" as="geometry" />
        </mxCell>
        <mxCell id="Ci6vwRIF2w2uZJWK-jLE-15" style="edgeStyle=orthogonalEdgeStyle;rounded=0;orthogonalLoop=1;jettySize=auto;html=1;entryX=0.5;entryY=1;entryDx=0;entryDy=0;endArrow=none;startFill=0;" parent="1" source="Ci6vwRIF2w2uZJWK-jLE-8" target="Ci6vwRIF2w2uZJWK-jLE-13" edge="1">
          <mxGeometry relative="1" as="geometry" />
        </mxCell>
        <mxCell id="Ci6vwRIF2w2uZJWK-jLE-16" style="edgeStyle=orthogonalEdgeStyle;rounded=0;orthogonalLoop=1;jettySize=auto;html=1;entryX=0.5;entryY=1;entryDx=0;entryDy=0;endArrow=none;startFill=0;" parent="1" source="Ci6vwRIF2w2uZJWK-jLE-8" target="Ci6vwRIF2w2uZJWK-jLE-14" edge="1">
          <mxGeometry relative="1" as="geometry" />
        </mxCell>
        <mxCell id="Ci6vwRIF2w2uZJWK-jLE-18" style="edgeStyle=orthogonalEdgeStyle;rounded=0;orthogonalLoop=1;jettySize=auto;html=1;entryX=0.5;entryY=1;entryDx=0;entryDy=0;endArrow=none;startFill=0;" parent="1" source="Ci6vwRIF2w2uZJWK-jLE-8" target="Ci6vwRIF2w2uZJWK-jLE-17" edge="1">
          <mxGeometry relative="1" as="geometry" />
        </mxCell>
        <mxCell id="Ci6vwRIF2w2uZJWK-jLE-8" value="Content_Release" style="shape=associativeEntity;whiteSpace=wrap;html=1;align=center;" parent="1" vertex="1">
          <mxGeometry x="505" y="450" width="140" height="60" as="geometry" />
        </mxCell>
        <mxCell id="Ci6vwRIF2w2uZJWK-jLE-9" value="releaseID" style="ellipse;whiteSpace=wrap;html=1;align=center;fontStyle=4;" parent="1" vertex="1">
          <mxGeometry x="790" y="270" width="100" height="40" as="geometry" />
        </mxCell>
        <mxCell id="Ci6vwRIF2w2uZJWK-jLE-11" value="version" style="ellipse;whiteSpace=wrap;html=1;align=center;" parent="1" vertex="1">
          <mxGeometry x="725" y="350" width="100" height="40" as="geometry" />
        </mxCell>
        <mxCell id="Ci6vwRIF2w2uZJWK-jLE-13" value="&lt;span style=&quot;border-bottom: 1px dotted&quot;&gt;content&lt;/span&gt;" style="ellipse;whiteSpace=wrap;html=1;align=center;" parent="1" vertex="1">
          <mxGeometry x="440" y="360" width="100" height="40" as="geometry" />
        </mxCell>
        <mxCell id="Ci6vwRIF2w2uZJWK-jLE-14" value="&lt;span style=&quot;border-bottom: 1px dotted&quot;&gt;release&lt;/span&gt;" style="ellipse;whiteSpace=wrap;html=1;align=center;" parent="1" vertex="1">
          <mxGeometry x="600" y="360" width="100" height="40" as="geometry" />
        </mxCell>
        <mxCell id="Ci6vwRIF2w2uZJWK-jLE-17" value="content_releaseID" style="ellipse;whiteSpace=wrap;html=1;align=center;fontStyle=4;" parent="1" vertex="1">
          <mxGeometry x="525" y="290" width="100" height="40" as="geometry" />
        </mxCell>
        <mxCell id="Ci6vwRIF2w2uZJWK-jLE-19" value="status" style="ellipse;whiteSpace=wrap;html=1;align=center;" parent="1" vertex="1">
          <mxGeometry x="1850" y="1861" width="100" height="40" as="geometry" />
        </mxCell>
        <mxCell id="Ci6vwRIF2w2uZJWK-jLE-20" value="&lt;span style=&quot;border-bottom: 1px dotted&quot;&gt;subscription&lt;/span&gt;" style="ellipse;whiteSpace=wrap;html=1;align=center;" parent="1" vertex="1">
          <mxGeometry x="2020" y="1860" width="100" height="40" as="geometry" />
        </mxCell>
        <mxCell id="Ci6vwRIF2w2uZJWK-jLE-23" value="addedAt" style="ellipse;whiteSpace=wrap;html=1;align=center;" parent="1" vertex="1">
          <mxGeometry x="1450" y="1617.5" width="100" height="40" as="geometry" />
        </mxCell>
        <mxCell id="Ci6vwRIF2w2uZJWK-jLE-25" value="status" style="ellipse;whiteSpace=wrap;html=1;align=center;" parent="1" vertex="1">
          <mxGeometry x="-170" y="2148" width="140" height="60" as="geometry" />
        </mxCell>
        <mxCell id="Ci6vwRIF2w2uZJWK-jLE-30" style="edgeStyle=orthogonalEdgeStyle;rounded=0;orthogonalLoop=1;jettySize=auto;html=1;entryX=0.19;entryY=1;entryDx=0;entryDy=0;entryPerimeter=0;endArrow=ERzeroToMany;endFill=0;" parent="1" target="yMJcQz2AITCi0hib5a6--1" edge="1">
          <mxGeometry relative="1" as="geometry">
            <mxPoint x="-238.75" y="1270" as="sourcePoint" />
          </mxGeometry>
        </mxCell>
        <mxCell id="O5y14gfZir4nTGl9hgQY-1" style="edgeStyle=orthogonalEdgeStyle;rounded=0;orthogonalLoop=1;jettySize=auto;html=1;endArrow=none;startFill=0;" edge="1" parent="1" source="Ci6vwRIF2w2uZJWK-jLE-31" target="Ci6vwRIF2w2uZJWK-jLE-37">
          <mxGeometry relative="1" as="geometry" />
        </mxCell>
        <mxCell id="O5y14gfZir4nTGl9hgQY-2" style="edgeStyle=orthogonalEdgeStyle;rounded=0;orthogonalLoop=1;jettySize=auto;html=1;endArrow=none;startFill=0;" edge="1" parent="1" source="Ci6vwRIF2w2uZJWK-jLE-31" target="Ci6vwRIF2w2uZJWK-jLE-33">
          <mxGeometry relative="1" as="geometry" />
        </mxCell>
        <mxCell id="O5y14gfZir4nTGl9hgQY-3" style="edgeStyle=orthogonalEdgeStyle;rounded=0;orthogonalLoop=1;jettySize=auto;html=1;entryX=0.5;entryY=0;entryDx=0;entryDy=0;endArrow=none;startFill=0;" edge="1" parent="1" source="Ci6vwRIF2w2uZJWK-jLE-31" target="Ci6vwRIF2w2uZJWK-jLE-34">
          <mxGeometry relative="1" as="geometry" />
        </mxCell>
        <mxCell id="Ci6vwRIF2w2uZJWK-jLE-31" value="Content_Availability" style="whiteSpace=wrap;html=1;align=center;" parent="1" vertex="1">
          <mxGeometry x="-354.37" y="1250" width="111.25" height="50" as="geometry" />
        </mxCell>
        <mxCell id="Ci6vwRIF2w2uZJWK-jLE-33" value="&lt;span style=&quot;border-bottom: 1px dotted&quot;&gt;availability&lt;/span&gt;" style="ellipse;whiteSpace=wrap;html=1;align=center;" parent="1" vertex="1">
          <mxGeometry x="-270" y="1350" width="100" height="40" as="geometry" />
        </mxCell>
        <mxCell id="Ci6vwRIF2w2uZJWK-jLE-34" value="&lt;span style=&quot;border-bottom: 1px dotted&quot;&gt;content&lt;/span&gt;" style="ellipse;whiteSpace=wrap;html=1;align=center;" parent="1" vertex="1">
          <mxGeometry x="-425" y="1350" width="100" height="40" as="geometry" />
        </mxCell>
        <mxCell id="Ci6vwRIF2w2uZJWK-jLE-37" value="content_availabilityID" style="ellipse;whiteSpace=wrap;html=1;align=center;fontStyle=4;" parent="1" vertex="1">
          <mxGeometry x="-364.37" y="1420" width="131.25" height="65" as="geometry" />
        </mxCell>
        <mxCell id="Ci6vwRIF2w2uZJWK-jLE-39" value="rating_value" style="ellipse;whiteSpace=wrap;html=1;align=center;" parent="1" vertex="1">
          <mxGeometry x="1020" y="2530" width="100" height="40" as="geometry" />
        </mxCell>
      </root>
    </mxGraphModel>
  </diagram>
</mxfile>
